
<svg width="54px" height="23px" viewBox="0 0 54 23" version="1.1" xmlns="http://www.w3.org/2000/svg" xmlns:xlink="http://www.w3.org/1999/xlink">
    <g id="Specs" stroke="none" stroke-width="1" fill="none" fill-rule="evenodd">
        <g id="lg-1056px-16-column" transform="translate(-32.000000, -13.000000)" fill="#000000">
            <g id="Group-4">
                <g id="brandBar-Copy-2">
                    <g id="logo" transform="translate(32.000000, 13.000000)">
                        <path d="M-2.87769808e-13,22.0817006 L-2.87769808e-13,20.6963875 L10.4710643,20.6963875 L10.4710643,22.0817006 L-2.87769808e-13,22.0817006 Z M-2.87769808e-13,19.1731015 L-2.87769808e-13,17.7877884 L10.4710643,17.7877884 L10.4710643,19.1731015 L-2.87769808e-13,19.1731015 Z M2.99150226,16.2645024 L2.99150226,14.8791893 L7.47923946,14.8791893 L7.47923946,16.2645024 L2.99150226,16.2645024 Z M2.99150226,13.3559033 L2.99150226,11.9705902 L7.47923946,11.9705902 L7.47923946,13.3559033 L2.99150226,13.3559033 Z M2.99150226,10.4469757 L2.99150226,9.06199113 L7.47923946,9.06199113 L7.47923946,10.4469757 L2.99150226,10.4469757 Z M2.99150226,7.53870516 L2.99150226,6.15339204 L7.47923946,6.15339204 L7.47923946,7.53870516 L2.99150226,7.53870516 Z M-2.87769808e-13,4.62977756 L-2.87769808e-13,3.24446443 L10.4710643,3.24446443 L10.4710643,4.62977756 L-2.87769808e-13,4.62977756 Z M-2.87769808e-13,1.72117846 L-2.87769808e-13,0.336193846 L10.4710643,0.336193846 L10.4710643,1.72117846 L-2.87769808e-13,1.72117846 Z M11.9671379,17.7880184 L28.4944219,17.7880184 C28.3641182,18.278479 28.171888,18.7429876 27.9277298,19.173003 L11.9671379,19.173003 L11.9671379,17.7880184 Z M14.9588014,16.2645024 L14.9588014,14.8791893 L19.4465386,14.8791893 L19.4465386,16.2645024 L14.9588014,16.2645024 Z M26.7804121,11.9704917 C27.2119625,12.3715985 27.583199,12.8380781 27.8776725,13.3558048 L14.9588982,13.3558048 L14.9588982,11.9704917 L26.7804121,11.9704917 Z M14.9587692,9.06205683 L27.9268912,9.06205683 C27.6320952,9.57978353 27.2608586,10.0459347 26.8296307,10.4470414 L14.9587692,10.4470414 L14.9587692,9.06205683 Z M28.4944864,4.62977756 L11.9672024,4.62977756 L11.9672024,3.24446443 L27.9277943,3.24446443 C28.1719525,3.67480833 28.3641827,4.13931692 28.4944864,4.62977756 Z M26.6796202,1.72101421 L11.9672347,1.72101421 L11.9672347,0.336029593 L22.9820911,0.336029593 C24.3928546,0.336029593 25.6829903,0.858026878 26.6796202,1.72101421 Z M14.9588014,7.53837665 L14.9588014,6.15306353 L19.4465386,6.15306353 L19.4465386,7.53837665 L14.9588014,7.53837665 Z M23.662154,7.5385409 L23.662154,6.15322778 L28.6936834,6.15322778 C28.6936834,6.63087665 28.6340146,7.09407122 28.5272559,7.5385409 L23.662154,7.5385409 Z M23.662154,14.879255 L28.5272559,14.879255 C28.6340146,15.3237247 28.6936834,15.7865908 28.6936834,16.2645681 L23.662154,16.2645681 L23.662154,14.879255 Z M38.348769,0.328375385 L38.8206362,1.71368851 L29.9174094,1.71368851 L29.9174094,0.328375385 L38.348769,0.328375385 Z M29.9176029,22.0817006 L29.9176029,20.696059 L37.3994226,20.696059 L37.3994226,22.0817006 L29.9176029,22.0817006 Z M29.9176029,19.172116 L29.9176029,17.7864744 L37.3994226,17.7864744 L37.3994226,19.172116 L29.9176029,19.172116 Z M32.9103953,16.2622029 L32.9103953,14.8768898 L37.3994226,14.8768898 L37.3994226,16.2622029 L32.9103953,16.2622029 Z M32.9103953,13.3529468 L32.9103953,11.9673052 L37.3994226,11.9673052 L37.3994226,13.3529468 L32.9103953,13.3529468 Z M46.3781224,22.0817006 L46.3781224,20.696059 L53.8599421,20.696059 L53.8599421,22.0817006 L46.3781224,22.0817006 Z M46.3781224,19.172116 L46.3781224,17.7864744 L53.8599421,17.7864744 L53.8599421,19.172116 L46.3781224,19.172116 Z M46.3781224,16.2622029 L46.3781224,14.8768898 L50.8671497,14.8768898 L50.8671497,16.2622029 L46.3781224,16.2622029 Z M46.3781224,13.3529468 L46.3781224,11.9673052 L50.8671497,11.9673052 L50.8671497,13.3529468 L46.3781224,13.3529468 Z M46.3781224,10.4431322 L46.3781224,9.12352045 L45.9204467,10.4431322 L41.9803721,10.4431322 L42.4525618,9.05749059 L46.3781224,9.05749059 L50.8671497,9.05749059 L50.8671497,10.4431322 L46.3781224,10.4431322 Z M41.3249832,9.05755629 L41.7971729,10.4431979 L37.8567757,10.4431979 L37.3994226,9.12358615 L37.3994226,10.4431979 L32.9103953,10.4431979 L32.9103953,9.05755629 L37.3994226,9.05755629 L41.3249832,9.05755629 Z M50.8671174,6.14784027 L50.8671174,7.5334819 L42.9718092,7.5334819 L43.4433538,6.14784027 L50.8671174,6.14784027 Z M45.4256151,0.328703891 L53.8598776,0.328703891 L53.8598776,1.71434552 L44.953748,1.71434552 L45.4256151,0.328703891 Z M41.8859342,22.0817006 L41.4108417,20.696059 L42.3665098,20.696059 L41.8859342,22.0817006 Z M40.8827569,19.1719846 L40.4025039,17.786343 L43.3752991,17.786343 L42.8947236,19.1719846 L40.8827569,19.1719846 Z M39.8741933,16.2622686 L39.3939402,14.8769555 L44.3835402,14.8769555 L43.9032872,16.2622686 L39.8741933,16.2622686 Z M38.8656619,13.3528482 L38.3854089,11.9672066 L45.3921361,11.9672066 L44.9118831,13.3528482 L38.8656619,13.3528482 Z M32.9104275,7.5334162 L32.9104275,6.14777457 L40.3338686,6.14777457 L40.8057358,7.5334162 L32.9104275,7.5334162 Z M43.9625689,4.62366733 L44.4347586,3.2380257 L53.8601679,3.2380257 L53.8601679,4.62366733 L43.9625689,4.62366733 Z M39.3428509,3.23812425 L39.814718,4.62376588 L29.9174416,4.62376588 L29.9174416,3.23812425 L39.3428509,3.23812425 Z M11.9671379,20.6964532 L26.6795234,20.6964532 C25.6828936,21.559769 24.3927578,22.0817663 22.9819944,22.0817663 L11.9671379,22.0817663 L11.9671379,20.6964532 Z" id="logo-color"></path>
                    </g>
                </g>
            </g>
        </g>
    </g>
</svg>
