<?xml version="1.0" encoding="UTF-8"?>
<svg width="320px" height="180px" viewBox="0 0 320 180" version="1.1" xmlns="http://www.w3.org/2000/svg" xmlns:xlink="http://www.w3.org/1999/xlink">
    <title>call-to-action</title>
    <defs>
        <path d="M11.375,6.5625 L10.758125,5.945625 L7.4375,9.261875 L7.4375,0.875 L6.5625,0.875 L6.5625,9.261875 L3.241875,5.945625 L2.625,6.5625 L7,10.9375 L11.375,6.5625 L11.375,6.5625 Z M11.375,10.5 L11.375,12.25 L2.625,12.25 L2.625,10.5 L1.75,10.5 L1.75,12.25 L1.75,12.25 C1.75,12.7332492 2.14175084,13.125 2.625,13.125 L11.375,13.125 C11.8582492,13.125 12.25,12.7332492 12.25,12.25 L12.25,12.25 L12.25,10.5 L11.375,10.5 Z" id="path-1"></path>
    </defs>
    <g id="call-to-action" stroke="none" stroke-width="1" fill="none" fill-rule="evenodd">
        <g id="Download-file-Copy" transform="translate(113.116000, 86.120000)" fill="#0F62FE" fill-rule="nonzero">
            <path d="M0,0.504 L2.808,0.504 C3.328,0.504 3.8,0.592 4.224,0.768 C4.648,0.944 5.01,1.206 5.31,1.554 C5.61,1.902 5.84,2.338 6,2.862 C6.16,3.386 6.24,3.996 6.24,4.692 C6.24,5.388 6.16,5.998 6,6.522 C5.84,7.046 5.61,7.482 5.31,7.83 C5.01,8.178 4.648,8.44 4.224,8.616 C3.8,8.792 3.328,8.88 2.808,8.88 L0,8.88 L0,0.504 Z M2.808,7.992 C3.152,7.992 3.468,7.934 3.756,7.818 C4.044,7.702 4.292,7.532 4.5,7.308 C4.708,7.084 4.87,6.81 4.986,6.486 C5.102,6.162 5.16,5.792 5.16,5.376 L5.16,4.008 C5.16,3.592 5.102,3.222 4.986,2.898 C4.87,2.574 4.708,2.3 4.5,2.076 C4.292,1.852 4.044,1.682 3.756,1.566 C3.468,1.45 3.152,1.392 2.808,1.392 L1.008,1.392 L1.008,7.992 L2.808,7.992 Z" id="Shape"></path>
            <path d="M10.296,9.024 C9.88,9.024 9.5,8.948 9.156,8.796 C8.812,8.644 8.518,8.426 8.274,8.142 C8.03,7.858 7.84,7.518 7.704,7.122 C7.568,6.726 7.5,6.28 7.5,5.784 C7.5,5.296 7.568,4.852 7.704,4.452 C7.84,4.052 8.03,3.71 8.274,3.426 C8.518,3.142 8.812,2.924 9.156,2.772 C9.5,2.62 9.88,2.544 10.296,2.544 C10.712,2.544 11.09,2.62 11.43,2.772 C11.77,2.924 12.064,3.142 12.312,3.426 C12.56,3.71 12.752,4.052 12.888,4.452 C13.024,4.852 13.092,5.296 13.092,5.784 C13.092,6.28 13.024,6.726 12.888,7.122 C12.752,7.518 12.56,7.858 12.312,8.142 C12.064,8.426 11.77,8.644 11.43,8.796 C11.09,8.948 10.712,9.024 10.296,9.024 Z M10.296,8.172 C10.816,8.172 11.24,8.012 11.568,7.692 C11.896,7.372 12.06,6.884 12.06,6.228 L12.06,5.34 C12.06,4.684 11.896,4.196 11.568,3.876 C11.24,3.556 10.816,3.396 10.296,3.396 C9.776,3.396 9.352,3.556 9.024,3.876 C8.696,4.196 8.532,4.684 8.532,5.34 L8.532,6.228 C8.532,6.884 8.696,7.372 9.024,7.692 C9.352,8.012 9.776,8.172 10.296,8.172 Z" id="Shape"></path>
            <polygon id="Path" points="14.028 2.688 14.964 2.688 15.624 5.364 16.284 8.076 16.308 8.076 17.064 5.364 17.844 2.688 18.696 2.688 19.5 5.364 20.268 8.076 20.292 8.076 20.928 5.364 21.6 2.688 22.5 2.688 20.856 8.88 19.668 8.88 18.804 5.904 18.264 4.02 18.24 4.02 17.712 5.904 16.848 8.88 15.684 8.88"></polygon>
            <path d="M23.892,8.88 L23.892,2.688 L24.852,2.688 L24.852,3.696 L24.9,3.696 C25.052,3.344 25.266,3.064 25.542,2.856 C25.818,2.648 26.188,2.544 26.652,2.544 C27.292,2.544 27.798,2.75 28.17,3.162 C28.542,3.574 28.728,4.156 28.728,4.908 L28.728,8.88 L27.768,8.88 L27.768,5.076 C27.768,3.964 27.3,3.408 26.364,3.408 C26.172,3.408 25.986,3.432 25.806,3.48 C25.626,3.528 25.464,3.6 25.32,3.696 C25.176,3.792 25.062,3.914 24.978,4.062 C24.894,4.21 24.852,4.384 24.852,4.584 L24.852,8.88 L23.892,8.88 Z" id="Path"></path>
            <path d="M31.728,8.88 C31.392,8.88 31.138,8.786 30.966,8.598 C30.794,8.41 30.708,8.172 30.708,7.884 L30.708,0 L31.668,0 L31.668,8.04 L32.58,8.04 L32.58,8.88 L31.728,8.88 Z" id="Path"></path>
            <path d="M36.312,9.024 C35.896,9.024 35.516,8.948 35.172,8.796 C34.828,8.644 34.534,8.426 34.29,8.142 C34.046,7.858 33.856,7.518 33.72,7.122 C33.584,6.726 33.516,6.28 33.516,5.784 C33.516,5.296 33.584,4.852 33.72,4.452 C33.856,4.052 34.046,3.71 34.29,3.426 C34.534,3.142 34.828,2.924 35.172,2.772 C35.516,2.62 35.896,2.544 36.312,2.544 C36.728,2.544 37.106,2.62 37.446,2.772 C37.786,2.924 38.08,3.142 38.328,3.426 C38.576,3.71 38.768,4.052 38.904,4.452 C39.04,4.852 39.108,5.296 39.108,5.784 C39.108,6.28 39.04,6.726 38.904,7.122 C38.768,7.518 38.576,7.858 38.328,8.142 C38.08,8.426 37.786,8.644 37.446,8.796 C37.106,8.948 36.728,9.024 36.312,9.024 Z M36.312,8.172 C36.832,8.172 37.256,8.012 37.584,7.692 C37.912,7.372 38.076,6.884 38.076,6.228 L38.076,5.34 C38.076,4.684 37.912,4.196 37.584,3.876 C37.256,3.556 36.832,3.396 36.312,3.396 C35.792,3.396 35.368,3.556 35.04,3.876 C34.712,4.196 34.548,4.684 34.548,5.34 L34.548,6.228 C34.548,6.884 34.712,7.372 35.04,7.692 C35.368,8.012 35.792,8.172 36.312,8.172 Z" id="Shape"></path>
            <path d="M45.192,8.88 C44.832,8.88 44.574,8.784 44.418,8.592 C44.262,8.4 44.164,8.16 44.124,7.872 L44.064,7.872 C43.928,8.256 43.704,8.544 43.392,8.736 C43.08,8.928 42.708,9.024 42.276,9.024 C41.62,9.024 41.11,8.856 40.746,8.52 C40.382,8.184 40.2,7.728 40.2,7.152 C40.2,6.568 40.414,6.12 40.842,5.808 C41.27,5.496 41.936,5.34 42.84,5.34 L44.064,5.34 L44.064,4.728 C44.064,4.288 43.944,3.952 43.704,3.72 C43.464,3.488 43.096,3.372 42.6,3.372 C42.224,3.372 41.91,3.456 41.658,3.624 C41.406,3.792 41.196,4.016 41.028,4.296 L40.452,3.756 C40.62,3.42 40.888,3.134 41.256,2.898 C41.624,2.662 42.088,2.544 42.648,2.544 C43.4,2.544 43.984,2.728 44.4,3.096 C44.816,3.464 45.024,3.976 45.024,4.632 L45.024,8.04 L45.732,8.04 L45.732,8.88 L45.192,8.88 Z M42.432,8.208 C42.672,8.208 42.892,8.18 43.092,8.124 C43.292,8.068 43.464,7.988 43.608,7.884 C43.752,7.78 43.864,7.66 43.944,7.524 C44.024,7.388 44.064,7.24 44.064,7.08 L44.064,6.06 L42.792,6.06 C42.24,6.06 41.838,6.14 41.586,6.3 C41.334,6.46 41.208,6.692 41.208,6.996 L41.208,7.248 C41.208,7.552 41.318,7.788 41.538,7.956 C41.758,8.124 42.056,8.208 42.432,8.208 Z" id="Shape"></path>
            <path d="M51.06,7.872 L51.012,7.872 C50.636,8.64 50.032,9.024 49.2,9.024 C48.816,9.024 48.468,8.948 48.156,8.796 C47.844,8.644 47.578,8.428 47.358,8.148 C47.138,7.868 46.97,7.528 46.854,7.128 C46.738,6.728 46.68,6.28 46.68,5.784 C46.68,5.288 46.738,4.84 46.854,4.44 C46.97,4.04 47.138,3.7 47.358,3.42 C47.578,3.14 47.844,2.924 48.156,2.772 C48.468,2.62 48.816,2.544 49.2,2.544 C49.632,2.544 50.002,2.638 50.31,2.826 C50.618,3.014 50.852,3.304 51.012,3.696 L51.06,3.696 L51.06,0 L52.02,0 L52.02,8.88 L51.06,8.88 L51.06,7.872 Z M49.464,8.16 C49.68,8.16 49.886,8.132 50.082,8.076 C50.278,8.02 50.448,7.938 50.592,7.83 C50.736,7.722 50.85,7.59 50.934,7.434 C51.018,7.278 51.06,7.1 51.06,6.9 L51.06,4.596 C51.06,4.428 51.018,4.27 50.934,4.122 C50.85,3.974 50.736,3.848 50.592,3.744 C50.448,3.64 50.278,3.558 50.082,3.498 C49.886,3.438 49.68,3.408 49.464,3.408 C48.92,3.408 48.492,3.578 48.18,3.918 C47.868,4.258 47.712,4.704 47.712,5.256 L47.712,6.312 C47.712,6.864 47.868,7.31 48.18,7.65 C48.492,7.99 48.92,8.16 49.464,8.16 Z" id="Shape"></path>
            <path d="M57.228,3.528 L56.22,3.528 L56.22,2.688 L57.228,2.688 L57.228,1.44 C57.228,1.008 57.34,0.66 57.564,0.396 C57.788,0.132 58.128,0 58.584,0 L59.52,0 L59.52,0.84 L58.188,0.84 L58.188,2.688 L61.656,2.688 L61.656,8.88 L60.696,8.88 L60.696,3.528 L58.188,3.528 L58.188,8.88 L57.228,8.88 L57.228,3.528 Z M61.176,1.236 C60.968,1.236 60.818,1.186 60.726,1.086 C60.634,0.986 60.588,0.856 60.588,0.696 L60.588,0.54 C60.588,0.38 60.634,0.25 60.726,0.15 C60.818,0.05 60.968,0 61.176,0 C61.384,0 61.534,0.05 61.626,0.15 C61.718,0.25 61.764,0.38 61.764,0.54 L61.764,0.696 C61.764,0.856 61.718,0.986 61.626,1.086 C61.534,1.186 61.384,1.236 61.176,1.236 Z" id="Shape"></path>
            <path d="M64.716,8.88 C64.38,8.88 64.126,8.786 63.954,8.598 C63.782,8.41 63.696,8.172 63.696,7.884 L63.696,0 L64.656,0 L64.656,8.04 L65.568,8.04 L65.568,8.88 L64.716,8.88 Z" id="Path"></path>
            <path d="M69.288,9.024 C68.864,9.024 68.482,8.948 68.142,8.796 C67.802,8.644 67.51,8.426 67.266,8.142 C67.022,7.858 66.834,7.518 66.702,7.122 C66.57,6.726 66.504,6.28 66.504,5.784 C66.504,5.296 66.57,4.852 66.702,4.452 C66.834,4.052 67.022,3.71 67.266,3.426 C67.51,3.142 67.802,2.924 68.142,2.772 C68.482,2.62 68.864,2.544 69.288,2.544 C69.704,2.544 70.076,2.62 70.404,2.772 C70.732,2.924 71.012,3.134 71.244,3.402 C71.476,3.67 71.654,3.988 71.778,4.356 C71.902,4.724 71.964,5.128 71.964,5.568 L71.964,6.024 L67.512,6.024 L67.512,6.312 C67.512,6.576 67.554,6.822 67.638,7.05 C67.722,7.278 67.842,7.476 67.998,7.644 C68.154,7.812 68.346,7.944 68.574,8.04 C68.802,8.136 69.06,8.184 69.348,8.184 C69.74,8.184 70.082,8.092 70.374,7.908 C70.666,7.724 70.892,7.46 71.052,7.116 L71.736,7.608 C71.536,8.032 71.224,8.374 70.8,8.634 C70.376,8.894 69.872,9.024 69.288,9.024 Z M69.288,3.348 C69.024,3.348 68.784,3.394 68.568,3.486 C68.352,3.578 68.166,3.708 68.01,3.876 C67.854,4.044 67.732,4.242 67.644,4.47 C67.556,4.698 67.512,4.948 67.512,5.22 L67.512,5.304 L70.932,5.304 L70.932,5.172 C70.932,4.62 70.782,4.178 70.482,3.846 C70.182,3.514 69.784,3.348 69.288,3.348 Z" id="Shape"></path>
        </g>
        <g id="icons/arrows/ibm-forward-link-copy" transform="translate(193.000000, 83.000000)">
            <mask id="mask-2" fill="white">
                <use xlink:href="#path-1"></use>
            </mask>
            <use id="icon-color" fill="#0F62FE" xlink:href="#path-1"></use>
        </g>
    </g>
</svg>