<?xml version="1.0" encoding="UTF-8"?>
<svg width="320px" height="180px" viewBox="0 0 320 180" version="1.1" xmlns="http://www.w3.org/2000/svg" xmlns:xlink="http://www.w3.org/1999/xlink">
    <title>card</title>
    <g id="card" stroke="none" stroke-width="1" fill="none" fill-rule="evenodd">
        <rect id="Rectangle-Copy-3" fill="#F3F3F3" x="72" y="41" width="176" height="98"></rect>
        <rect id="Rectangle-Copy-4" fill="#A8A8A8" x="85" y="54" width="90" height="8"></rect>
        <g id="Fill-14" transform="translate(85.000000, 94.000000)" fill="#000000">
            <path d="M16.3409,0.9997 C18.1209,0.9997 18.7199,4.1107 18.7199,5.5297 L18.7199,11.0677 L20.9999,12.8227 L20.9999,10.384 C20.9999,10.185 21.1609,10.023 21.3599,10.023 C21.5589,10.023 21.7199,10.185 21.7199,10.384 L21.7199,13.3777 L23.9999,15.1337 L23.9999,12.3835 C23.9999,12.1845 24.1609,12.0235 24.3599,12.0235 C24.5589,12.0235 24.7199,12.1845 24.7199,12.3835 L24.7199,15.6877 L29.5799,19.4307 C29.6679,19.4987 29.7199,19.6047 29.7199,19.7157 L29.7199,23.8837 C29.7199,24.0117 29.6519,24.1307 29.5409,24.1957 C29.4299,24.2597 29.2939,24.2597 29.1819,24.1967 L18.7249,18.2587 L18.7199,25.7227 L22.5989,29.1687 C22.6759,29.2377 22.7199,29.3357 22.7199,29.4387 L22.7199,31.3837 C22.7199,31.4987 22.6639,31.6087 22.5699,31.6757 C22.5079,31.7207 22.4349,31.7437 22.3599,31.7437 C22.3219,31.7437 22.2829,31.7377 22.2459,31.7257 L16.3599,29.7637 L10.4739,31.7257 C10.3639,31.7607 10.2429,31.7437 10.1499,31.6757 C10.0559,31.6087 9.9999,31.4987 9.9999,31.3837 L9.9999,29.4387 C9.9999,29.3357 10.0439,29.2377 10.1209,29.1687 L13.9999,25.7217 L13.9999,5.5297 C13.9999,4.1107 14.5889,0.9997 16.3409,0.9997 Z M16.3409,1.7207 C15.3519,1.7207 14.7199,3.9767 14.7199,5.5297 L14.7199,25.8837 C14.7199,25.9867 14.6759,26.0847 14.5989,26.1537 L10.7199,29.6007 L10.7199,30.8847 L16.2459,29.0417 C16.2829,29.0297 16.3209,29.0237 16.3599,29.0237 C16.3989,29.0237 16.4369,29.0297 16.4739,29.0417 L21.9999,30.8847 L21.9999,29.6007 L18.1209,26.1537 C18.0439,26.0847 17.9999,25.9867 17.9999,25.8837 L18.0049,17.6407 C18.0049,17.5127 18.0729,17.3937 18.1839,17.3287 C18.2949,17.2657 18.4309,17.2637 18.5429,17.3267 L28.9999,23.2657 L28.9999,19.8927 L24.1613776,16.1659593 C24.1560643,16.1624443 24.15085,16.158792 24.1457397,16.1550074 L18.1399,11.5297 C18.0519,11.4607 17.9999,11.3557 17.9999,11.2437 L17.9999,5.5297 C17.9999,4.0127 17.3389,1.7207 16.3409,1.7207 Z M11.3599,10.0234 C11.5589,10.0234 11.7199,10.1844 11.7199,10.3834 L11.7199,12.2037 L12.1309,11.8666 C12.2849,11.7416 12.5119,11.7626 12.6379,11.9156 C12.7639,12.0696 12.7419,12.2966 12.5889,12.4226 L3.7199,19.7076 L3.7199,23.2376 L12.1799,18.3536 C12.3519,18.2516 12.5719,18.3116 12.6719,18.4856 C12.7709,18.6576 12.7119,18.8766 12.5399,18.9766 L3.5399,24.1726 C3.4849,24.2046 3.4219,24.2216 3.3599,24.2216 C3.2979,24.2216 3.2349,24.2046 3.1799,24.1726 C3.0679,24.1086 2.9999,23.9906 2.9999,23.8616 L2.9999,19.5376 C2.9999,19.4306 3.0479,19.3276 3.1309,19.2596 L7.99995085,15.2584214 C7.99991699,15.256385 7.9999,15.2543445 7.9999,15.2523 L7.9999,12.3833 C7.9999,12.1843 8.1609,12.0233 8.3599,12.0233 C8.5589,12.0233 8.7199,12.1843 8.7199,12.3833 L8.7199,14.6677 L10.9999692,12.7945392 C10.9999231,12.7921651 10.9999,12.7897853 10.9999,12.7874 L10.9999,10.3834 C10.9999,10.1844 11.1609,10.0234 11.3599,10.0234 Z"></path>
        </g>
    </g>
</svg>