<?xml version="1.0" encoding="UTF-8"?>
<svg width="320px" height="180px" viewBox="0 0 320 180" version="1.1" xmlns="http://www.w3.org/2000/svg" xmlns:xlink="http://www.w3.org/1999/xlink">
    <title>card-group</title>
    <defs>
        <polygon id="path-1" points="5.0625 1.6875 4.6659375 2.0840625 6.7978125 4.21875 0.84375 4.21875 0.84375 4.78125 6.7978125 4.78125 4.6659375 6.9159375 5.0625 7.3125 7.875 4.5"></polygon>
        <polygon id="path-3" points="5.0625 1.6875 4.6659375 2.0840625 6.7978125 4.21875 0.84375 4.21875 0.84375 4.78125 6.7978125 4.78125 4.6659375 6.9159375 5.0625 7.3125 7.875 4.5"></polygon>
        <polygon id="path-5" points="5.0625 1.6875 4.6659375 2.0840625 6.7978125 4.21875 0.84375 4.21875 0.84375 4.78125 6.7978125 4.78125 4.6659375 6.9159375 5.0625 7.3125 7.875 4.5"></polygon>
        <polygon id="path-7" points="5.0625 1.6875 4.6659375 2.0840625 6.7978125 4.21875 0.84375 4.21875 0.84375 4.78125 6.7978125 4.78125 4.6659375 6.9159375 5.0625 7.3125 7.875 4.5"></polygon>
        <polygon id="path-9" points="5.0625 1.6875 4.6659375 2.0840625 6.7978125 4.21875 0.84375 4.21875 0.84375 4.78125 6.7978125 4.78125 4.6659375 6.9159375 5.0625 7.3125 7.875 4.5"></polygon>
        <polygon id="path-11" points="5.0625 1.6875 4.6659375 2.0840625 6.7978125 4.21875 0.84375 4.21875 0.84375 4.78125 6.7978125 4.78125 4.6659375 6.9159375 5.0625 7.3125 7.875 4.5"></polygon>
    </defs>
    <g id="card-group" stroke="none" stroke-width="1" fill="none" fill-rule="evenodd">
        <g id="Group" transform="translate(56.000000, 35.000000)">
            <rect id="Rectangle-Copy-63" fill="#F3F3F3" x="140" y="1.42108547e-14" width="68" height="54"></rect>
            <rect id="Rectangle-Copy-83" fill="#262626" x="140" y="56" width="68" height="54"></rect>
            <rect id="Rectangle-Copy-71" fill="#F3F3F3" x="0" y="0" width="68" height="54"></rect>
            <rect id="Rectangle-Copy-73" fill="#F3F3F3" x="0" y="56" width="68" height="54"></rect>
            <rect id="Rectangle-Copy-72" fill="#F3F3F3" x="70" y="1.42108547e-14" width="68" height="54"></rect>
            <rect id="Rectangle-Copy-74" fill="#F3F3F3" x="70" y="56" width="68" height="54"></rect>
            <rect id="Rectangle-Copy-107" fill="#C6C6C6" x="144" y="62" width="39" height="4"></rect>
            <rect id="Rectangle-Copy-110" fill="#A8A8A8" x="5" y="6" width="39" height="4"></rect>
            <rect id="Rectangle-Copy-113" fill="#A8A8A8" x="5" y="62" width="39" height="4"></rect>
            <rect id="Rectangle-Copy-111" fill="#A8A8A8" x="75" y="6" width="39" height="4"></rect>
            <rect id="Rectangle-Copy-117" fill="#A8A8A8" x="75" y="62" width="39" height="4"></rect>
            <rect id="Rectangle-Copy-112" fill="#A8A8A8" x="144" y="6" width="39" height="4"></rect>
            <rect id="Rectangle-Copy-114" fill="#C6C6C6" x="5" y="21" width="56" height="3"></rect>
            <rect id="Rectangle-Copy-118" fill="#C6C6C6" x="5" y="77" width="56" height="3"></rect>
            <rect id="Rectangle-Copy-115" fill="#C6C6C6" x="75" y="21" width="57" height="3"></rect>
            <rect id="Rectangle-Copy-122" fill="#C6C6C6" x="75" y="77" width="57" height="3"></rect>
            <rect id="Rectangle-Copy-116" fill="#C6C6C6" x="144" y="21" width="57" height="3"></rect>
            <rect id="Rectangle-Copy-119" fill="#C6C6C6" x="5" y="26" width="49" height="3"></rect>
            <rect id="Rectangle-Copy-123" fill="#C6C6C6" x="5" y="82" width="49" height="3"></rect>
            <rect id="Rectangle-Copy-120" fill="#C6C6C6" x="75" y="26" width="49" height="3"></rect>
            <rect id="Rectangle-Copy-127" fill="#C6C6C6" x="75" y="82" width="49" height="3"></rect>
            <rect id="Rectangle-Copy-121" fill="#C6C6C6" x="144" y="26" width="49" height="3"></rect>
            <rect id="Rectangle-Copy-124" fill="#C6C6C6" x="5" y="31" width="56" height="3"></rect>
            <rect id="Rectangle-Copy-128" fill="#C6C6C6" x="5" y="87" width="56" height="3"></rect>
            <rect id="Rectangle-Copy-125" fill="#C6C6C6" x="75" y="31" width="57" height="3"></rect>
            <rect id="Rectangle-Copy-129" fill="#C6C6C6" x="75" y="87" width="57" height="3"></rect>
            <rect id="Rectangle-Copy-126" fill="#C6C6C6" x="144" y="31" width="57" height="3"></rect>
            <g transform="translate(145.000000, 42.000000)" id="icons/arrows/ibm-forward-link-copy-8">
                <mask id="mask-2" fill="white">
                    <use xlink:href="#path-1"></use>
                </mask>
                <use id="icon-color" fill="#0F62FE" xlink:href="#path-1"></use>
            </g>
            <g transform="translate(75.000000, 42.000000)" id="icons/arrows/ibm-forward-link-copy-8">
                <mask id="mask-4" fill="white">
                    <use xlink:href="#path-3"></use>
                </mask>
                <use id="icon-color" fill="#0F62FE" xlink:href="#path-3"></use>
            </g>
            <g transform="translate(75.000000, 98.000000)" id="icons/arrows/ibm-forward-link-copy-8">
                <mask id="mask-6" fill="white">
                    <use xlink:href="#path-5"></use>
                </mask>
                <use id="icon-color" fill="#0F62FE" xlink:href="#path-5"></use>
            </g>
            <g transform="translate(144.000000, 98.000000)" id="icons/arrows/ibm-forward-link-copy-11">
                <mask id="mask-8" fill="white">
                    <use xlink:href="#path-7"></use>
                </mask>
                <use id="icon-color" fill="#A6C8FF" xlink:href="#path-7"></use>
            </g>
            <g transform="translate(5.000000, 42.000000)" id="icons/arrows/ibm-forward-link-copy-8">
                <mask id="mask-10" fill="white">
                    <use xlink:href="#path-9"></use>
                </mask>
                <use id="icon-color" fill="#0F62FE" xlink:href="#path-9"></use>
            </g>
            <g transform="translate(5.000000, 98.000000)" id="icons/arrows/ibm-forward-link-copy-8">
                <mask id="mask-12" fill="white">
                    <use xlink:href="#path-11"></use>
                </mask>
                <use id="icon-color" fill="#0F62FE" xlink:href="#path-11"></use>
            </g>
        </g>
    </g>
</svg>