<?xml version="1.0" encoding="UTF-8"?>
<svg width="320px" height="180px" viewBox="0 0 320 180" version="1.1" xmlns="http://www.w3.org/2000/svg" xmlns:xlink="http://www.w3.org/1999/xlink">
    <title>coming-soon</title>
    <g id="coming-soon" stroke="none" stroke-width="1" fill="none" fill-rule="evenodd">
        <g transform="translate(74.302000, 83.640000)" fill="#ADADAD" fill-rule="nonzero" id="Previewimagecomingsoon">
            <path d="M1.176,10.36 L1.176,6.188 L3.892,6.188 C4.7693333,6.188 5.4436667,5.938333 5.915,5.439 C6.3863333,4.939667 6.622,4.256 6.622,3.388 C6.622,2.52 6.3863333,1.836333 5.915,1.337 C5.4436667,0.837667 4.7693333,0.588 3.892,0.588 L3.892,0.588 L0,0.588 L0,10.36 L1.176,10.36 Z M3.892,5.152 L1.176,5.152 L1.176,1.624 L3.892,1.624 C4.3586667,1.624 4.7203333,1.745333 4.977,1.988 C5.2336667,2.230667 5.362,2.576 5.362,3.024 L5.362,3.024 L5.362,3.752 C5.362,4.2 5.2336667,4.545333 4.977,4.788 C4.7203333,5.030667 4.3586667,5.152 3.892,5.152 L3.892,5.152 Z M9.492,10.36 L9.492,5.46 C9.492,5.114667 9.6623333,4.827667 10.003,4.599 C10.3436667,4.370333 10.8173333,4.256 11.424,4.256 L11.424,4.256 L12.082,4.256 L12.082,3.136 L11.648,3.136 C11.06,3.136 10.598,3.271333 10.262,3.542 C9.926,3.812667 9.6926667,4.120667 9.562,4.466 L9.562,4.466 L9.492,4.466 L9.492,3.136 L8.372,3.136 L8.372,10.36 L9.492,10.36 Z M16.226,10.528 C16.9073333,10.528 17.4953333,10.376333 17.99,10.073 C18.4846667,9.769667 18.8486667,9.370667 19.082,8.876 L19.082,8.876 L18.284,8.302 C18.0973333,8.703333 17.8336667,9.011333 17.493,9.226 C17.1523333,9.440667 16.7533333,9.548 16.296,9.548 C15.96,9.548 15.659,9.492 15.393,9.38 C15.127,9.268 14.903,9.114 14.721,8.918 C14.539,8.722 14.399,8.491 14.301,8.225 C14.203,7.959 14.154,7.672 14.154,7.364 L14.154,7.364 L14.154,7.028 L19.348,7.028 L19.348,6.496 C19.348,5.982667 19.2756667,5.511333 19.131,5.082 C18.9863333,4.652667 18.7786667,4.281667 18.508,3.969 C18.2373333,3.656333 17.9106667,3.411333 17.528,3.234 C17.1453333,3.056667 16.7113333,2.968 16.226,2.968 C15.7313333,2.968 15.2856667,3.056667 14.889,3.234 C14.4923333,3.411333 14.1516667,3.665667 13.867,3.997 C13.5823333,4.328333 13.363,4.727333 13.209,5.194 C13.055,5.660667 12.978,6.178667 12.978,6.748 C12.978,7.326667 13.055,7.847 13.209,8.309 C13.363,8.771 13.5823333,9.167667 13.867,9.499 C14.1516667,9.830333 14.4923333,10.084667 14.889,10.262 C15.2856667,10.439333 15.7313333,10.528 16.226,10.528 Z M18.144,6.188 L14.154,6.188 L14.154,6.09 C14.154,5.772667 14.2053333,5.481 14.308,5.215 C14.4106667,4.949 14.553,4.718 14.735,4.522 C14.917,4.326 15.134,4.174333 15.386,4.067 C15.638,3.959667 15.918,3.906 16.226,3.906 C16.8046667,3.906 17.269,4.099667 17.619,4.487 C17.969,4.874333 18.144,5.39 18.144,6.034 L18.144,6.034 L18.144,6.188 Z M24.094,10.36 L26.642,3.136 L25.564,3.136 L24.276,6.72 L23.492,9.184 L23.422,9.184 L22.638,6.72 L21.378,3.136 L20.258,3.136 L22.792,10.36 L24.094,10.36 Z M28.644,1.442 C28.886667,1.442 29.061667,1.383667 29.169,1.267 C29.276333,1.150333 29.33,0.998667 29.33,0.812 L29.33,0.812 L29.33,0.63 C29.33,0.443333 29.276333,0.291667 29.169,0.175 C29.061667,0.058333 28.886667,0 28.644,0 C28.401333,0 28.226333,0.058333 28.119,0.175 C28.011667,0.291667 27.958,0.443333 27.958,0.63 L27.958,0.63 L27.958,0.812 C27.958,0.998667 28.011667,1.150333 28.119,1.267 C28.226333,1.383667 28.401333,1.442 28.644,1.442 Z M29.204,10.36 L29.204,3.136 L28.084,3.136 L28.084,10.36 L29.204,10.36 Z M34.3,10.528 C34.981333,10.528 35.569333,10.376333 36.064,10.073 C36.558667,9.769667 36.922667,9.370667 37.156,8.876 L37.156,8.876 L36.358,8.302 C36.171333,8.703333 35.907667,9.011333 35.567,9.226 C35.226333,9.440667 34.827333,9.548 34.37,9.548 C34.034,9.548 33.733,9.492 33.467,9.38 C33.201,9.268 32.977,9.114 32.795,8.918 C32.613,8.722 32.473,8.491 32.375,8.225 C32.277,7.959 32.228,7.672 32.228,7.364 L32.228,7.364 L32.228,7.028 L37.422,7.028 L37.422,6.496 C37.422,5.982667 37.349667,5.511333 37.205,5.082 C37.060333,4.652667 36.852667,4.281667 36.582,3.969 C36.311333,3.656333 35.984667,3.411333 35.602,3.234 C35.219333,3.056667 34.785333,2.968 34.3,2.968 C33.805333,2.968 33.359667,3.056667 32.963,3.234 C32.566333,3.411333 32.225667,3.665667 31.941,3.997 C31.656333,4.328333 31.437,4.727333 31.283,5.194 C31.129,5.660667 31.052,6.178667 31.052,6.748 C31.052,7.326667 31.129,7.847 31.283,8.309 C31.437,8.771 31.656333,9.167667 31.941,9.499 C32.225667,9.830333 32.566333,10.084667 32.963,10.262 C33.359667,10.439333 33.805333,10.528 34.3,10.528 Z M36.218,6.188 L32.228,6.188 L32.228,6.09 C32.228,5.772667 32.279333,5.481 32.382,5.215 C32.484667,4.949 32.627,4.718 32.809,4.522 C32.991,4.326 33.208,4.174333 33.46,4.067 C33.712,3.959667 33.992,3.906 34.3,3.906 C34.878667,3.906 35.343,4.099667 35.693,4.487 C36.043,4.874333 36.218,5.39 36.218,6.034 L36.218,6.034 L36.218,6.188 Z M41.804,10.36 L42.812,6.888 L43.428,4.69 L43.456,4.69 L44.086,6.888 L45.094,10.36 L46.48,10.36 L48.398,3.136 L47.348,3.136 L46.564,6.258 L45.822,9.422 L45.794,9.422 L44.898,6.258 L43.96,3.136 L42.966,3.136 L42.056,6.258 L41.174,9.422 L41.146,9.422 L40.376,6.258 L39.606,3.136 L38.514,3.136 L40.446,10.36 L41.804,10.36 Z M53.886,1.442 C54.128667,1.442 54.303667,1.383667 54.411,1.267 C54.518333,1.150333 54.572,0.998667 54.572,0.812 L54.572,0.812 L54.572,0.63 C54.572,0.443333 54.518333,0.291667 54.411,0.175 C54.303667,0.058333 54.128667,0 53.886,0 C53.643333,0 53.468333,0.058333 53.361,0.175 C53.253667,0.291667 53.2,0.443333 53.2,0.63 L53.2,0.63 L53.2,0.812 C53.2,0.998667 53.253667,1.150333 53.361,1.267 C53.468333,1.383667 53.643333,1.442 53.886,1.442 Z M54.446,10.36 L54.446,3.136 L53.326,3.136 L53.326,10.36 L54.446,10.36 Z M57.946,10.36 L57.946,5.348 C57.946,5.114667 57.995,4.911667 58.093,4.739 C58.191,4.566333 58.319333,4.424 58.478,4.312 C58.636667,4.2 58.818667,4.116 59.024,4.06 C59.229333,4.004 59.444,3.976 59.668,3.976 C60.2,3.976 60.592,4.139333 60.844,4.466 C61.096,4.792667 61.222,5.278 61.222,5.922 L61.222,5.922 L61.222,10.36 L62.342,10.36 L62.342,5.348 C62.342,5.114667 62.388667,4.911667 62.482,4.739 C62.575333,4.566333 62.701333,4.424 62.86,4.312 C63.018667,4.2 63.198333,4.116 63.399,4.06 C63.599667,4.004 63.812,3.976 64.036,3.976 C64.586667,3.976 64.988,4.139333 65.24,4.466 C65.492,4.792667 65.618,5.278 65.618,5.922 L65.618,5.922 L65.618,10.36 L66.738,10.36 L66.738,5.726 C66.738,4.848667 66.530333,4.169667 66.115,3.689 C65.699667,3.208333 65.123333,2.968 64.386,2.968 C63.77,2.968 63.282333,3.115 62.923,3.409 C62.563667,3.703 62.318667,4.046 62.188,4.438 L62.188,4.438 L62.16,4.438 C61.964,3.915333 61.665333,3.539667 61.264,3.311 C60.862667,3.082333 60.424,2.968 59.948,2.968 C59.668,2.968 59.425333,3.003 59.22,3.073 C59.014667,3.143 58.835,3.238667 58.681,3.36 C58.527,3.481333 58.396333,3.623667 58.289,3.787 C58.181667,3.950333 58.086,4.125333 58.002,4.312 L58.002,4.312 L57.946,4.312 L57.946,3.136 L56.826,3.136 L56.826,10.36 L57.946,10.36 Z M70.896,10.528 C71.4,10.528 71.834,10.416 72.198,10.192 C72.562,9.968 72.823333,9.632 72.982,9.184 L72.982,9.184 L73.052,9.184 C73.098667,9.52 73.213,9.8 73.395,10.024 C73.577,10.248 73.878,10.36 74.298,10.36 L74.298,10.36 L74.928,10.36 L74.928,9.38 L74.102,9.38 L74.102,5.404 C74.102,4.638667 73.859333,4.041333 73.374,3.612 C72.888667,3.182667 72.207333,2.968 71.33,2.968 C70.676667,2.968 70.135333,3.105667 69.706,3.381 C69.276667,3.656333 68.964,3.99 68.768,4.382 L68.768,4.382 L69.44,5.012 C69.636,4.685333 69.881,4.424 70.175,4.228 C70.469,4.032 70.835333,3.934 71.274,3.934 C71.852667,3.934 72.282,4.069333 72.562,4.34 C72.842,4.610667 72.982,5.002667 72.982,5.516 L72.982,5.516 L72.982,6.23 L71.554,6.23 C70.499333,6.23 69.722333,6.412 69.223,6.776 C68.723667,7.14 68.474,7.662667 68.474,8.344 C68.474,9.016 68.686333,9.548 69.111,9.94 C69.535667,10.332 70.130667,10.528 70.896,10.528 Z M71.078,9.576 C70.639333,9.576 70.291667,9.478 70.035,9.282 C69.778333,9.086 69.65,8.810667 69.65,8.456 L69.65,8.456 L69.65,8.162 C69.65,7.807333 69.797,7.536667 70.091,7.35 C70.385,7.163333 70.854,7.07 71.498,7.07 L71.498,7.07 L72.982,7.07 L72.982,8.26 C72.982,8.446667 72.935333,8.619333 72.842,8.778 C72.748667,8.936667 72.618,9.076667 72.45,9.198 C72.282,9.319333 72.081333,9.412667 71.848,9.478 C71.614667,9.543333 71.358,9.576 71.078,9.576 Z M79.114,13.328 C80.280667,13.328 81.155667,13.153 81.739,12.803 C82.322333,12.453 82.614,11.904667 82.614,11.158 C82.614,10.560667 82.411,10.091667 82.005,9.751 C81.599,9.410333 80.948,9.24 80.052,9.24 L80.052,9.24 L78.512,9.24 C78.185333,9.24 77.919333,9.202667 77.714,9.128 C77.508667,9.053333 77.406,8.908667 77.406,8.694 C77.406,8.47 77.504,8.295 77.7,8.169 C77.896,8.043 78.115333,7.947333 78.358,7.882 C78.591333,7.928667 78.824667,7.952 79.058,7.952 C79.468667,7.952 79.842,7.891333 80.178,7.77 C80.514,7.648667 80.801,7.478333 81.039,7.259 C81.277,7.039667 81.461333,6.776 81.592,6.468 C81.722667,6.16 81.788,5.824 81.788,5.46 C81.788,5.068 81.715667,4.715667 81.571,4.403 C81.426333,4.090333 81.223333,3.822 80.962,3.598 L80.962,3.598 L80.962,3.136 L82.334,3.136 L82.334,2.156 L81.256,2.156 C80.957333,2.156 80.742667,2.247 80.612,2.429 C80.481333,2.611 80.416,2.842 80.416,3.122 L80.416,3.122 L80.416,3.248 C80.014667,3.061333 79.557333,2.968 79.044,2.968 C78.633333,2.968 78.262333,3.028667 77.931,3.15 C77.599667,3.271333 77.315,3.441667 77.077,3.661 C76.839,3.880333 76.654667,4.144 76.524,4.452 C76.393333,4.76 76.328,5.096 76.328,5.46 C76.328,5.964 76.447,6.407333 76.685,6.79 C76.923,7.172667 77.256667,7.466667 77.686,7.672 L77.686,7.672 L77.686,7.728 C77.322,7.821333 77.023333,7.963667 76.79,8.155 C76.556667,8.346333 76.44,8.624 76.44,8.988 C76.44,9.454667 76.654667,9.790667 77.084,9.996 L77.084,9.996 L77.084,10.15 C76.729333,10.252667 76.449333,10.413667 76.244,10.633 C76.038667,10.852333 75.936,11.158 75.936,11.55 C75.936,12.119333 76.183333,12.558 76.678,12.866 C77.172667,13.174 77.984667,13.328 79.114,13.328 Z M79.058,7.056 C78.582,7.056 78.204,6.941667 77.924,6.713 C77.644,6.484333 77.504,6.132 77.504,5.656 L77.504,5.656 L77.504,5.264 C77.504,4.788 77.644,4.435667 77.924,4.207 C78.204,3.978333 78.582,3.864 79.058,3.864 C79.534,3.864 79.912,3.978333 80.192,4.207 C80.472,4.435667 80.612,4.788 80.612,5.264 L80.612,5.264 L80.612,5.656 C80.612,6.132 80.472,6.484333 80.192,6.713 C79.912,6.941667 79.534,7.056 79.058,7.056 Z M79.59,12.418 L78.554,12.418 C77.984667,12.418 77.581,12.306 77.343,12.082 C77.105,11.858 76.986,11.587333 76.986,11.27 C76.986,10.822 77.21,10.495333 77.658,10.29 L77.658,10.29 L80.066,10.29 C80.626,10.29 81.015667,10.376333 81.235,10.549 C81.454333,10.721667 81.564,10.952667 81.564,11.242 C81.564,11.634 81.391333,11.928 81.046,12.124 C80.700667,12.32 80.215333,12.418 79.59,12.418 L79.59,12.418 Z M86.632,10.528 C87.313333,10.528 87.901333,10.376333 88.396,10.073 C88.890667,9.769667 89.254667,9.370667 89.488,8.876 L89.488,8.876 L88.69,8.302 C88.503333,8.703333 88.239667,9.011333 87.899,9.226 C87.558333,9.440667 87.159333,9.548 86.702,9.548 C86.366,9.548 86.065,9.492 85.799,9.38 C85.533,9.268 85.309,9.114 85.127,8.918 C84.945,8.722 84.805,8.491 84.707,8.225 C84.609,7.959 84.56,7.672 84.56,7.364 L84.56,7.364 L84.56,7.028 L89.754,7.028 L89.754,6.496 C89.754,5.982667 89.681667,5.511333 89.537,5.082 C89.392333,4.652667 89.184667,4.281667 88.914,3.969 C88.643333,3.656333 88.316667,3.411333 87.934,3.234 C87.551333,3.056667 87.117333,2.968 86.632,2.968 C86.137333,2.968 85.691667,3.056667 85.295,3.234 C84.898333,3.411333 84.557667,3.665667 84.273,3.997 C83.988333,4.328333 83.769,4.727333 83.615,5.194 C83.461,5.660667 83.384,6.178667 83.384,6.748 C83.384,7.326667 83.461,7.847 83.615,8.309 C83.769,8.771 83.988333,9.167667 84.273,9.499 C84.557667,9.830333 84.898333,10.084667 85.295,10.262 C85.691667,10.439333 86.137333,10.528 86.632,10.528 Z M88.55,6.188 L84.56,6.188 L84.56,6.09 C84.56,5.772667 84.611333,5.481 84.714,5.215 C84.816667,4.949 84.959,4.718 85.141,4.522 C85.323,4.326 85.54,4.174333 85.792,4.067 C86.044,3.959667 86.324,3.906 86.632,3.906 C87.210667,3.906 87.675,4.099667 88.025,4.487 C88.375,4.874333 88.55,5.39 88.55,6.034 L88.55,6.034 L88.55,6.188 Z M97.594,10.528 C98.284667,10.528 98.861,10.374 99.323,10.066 C99.785,9.758 100.132667,9.342667 100.366,8.82 L100.366,8.82 L99.554,8.274 C99.152667,9.114 98.499333,9.534 97.594,9.534 C96.931333,9.534 96.429667,9.331 96.089,8.925 C95.748333,8.519 95.578,7.998667 95.578,7.364 L95.578,7.364 L95.578,6.132 C95.578,5.814667 95.62,5.523 95.704,5.257 C95.788,4.991 95.914,4.762333 96.082,4.571 C96.25,4.379667 96.46,4.230333 96.712,4.123 C96.964,4.015667 97.258,3.962 97.594,3.962 C98.042,3.962 98.415333,4.064667 98.714,4.27 C99.012667,4.475333 99.227333,4.764667 99.358,5.138 L99.358,5.138 L100.296,4.662 C100.081333,4.158 99.757,3.749667 99.323,3.437 C98.889,3.124333 98.312667,2.968 97.594,2.968 C97.09,2.968 96.637333,3.056667 96.236,3.234 C95.834667,3.411333 95.496333,3.663333 95.221,3.99 C94.945667,4.316667 94.735667,4.713333 94.591,5.18 C94.446333,5.646667 94.374,6.169333 94.374,6.748 C94.374,7.326667 94.446333,7.849333 94.591,8.316 C94.735667,8.782667 94.945667,9.179333 95.221,9.506 C95.496333,9.832667 95.834667,10.084667 96.236,10.262 C96.637333,10.439333 97.09,10.528 97.594,10.528 Z M104.678,10.528 C105.163333,10.528 105.604333,10.439333 106.001,10.262 C106.397667,10.084667 106.740667,9.830333 107.03,9.499 C107.319333,9.167667 107.543333,8.771 107.702,8.309 C107.860667,7.847 107.94,7.326667 107.94,6.748 C107.94,6.178667 107.860667,5.660667 107.702,5.194 C107.543333,4.727333 107.319333,4.328333 107.03,3.997 C106.740667,3.665667 106.397667,3.411333 106.001,3.234 C105.604333,3.056667 105.163333,2.968 104.678,2.968 C104.192667,2.968 103.749333,3.056667 103.348,3.234 C102.946667,3.411333 102.603667,3.665667 102.319,3.997 C102.034333,4.328333 101.812667,4.727333 101.654,5.194 C101.495333,5.660667 101.416,6.178667 101.416,6.748 C101.416,7.326667 101.495333,7.847 101.654,8.309 C101.812667,8.771 102.034333,9.167667 102.319,9.499 C102.603667,9.830333 102.946667,10.084667 103.348,10.262 C103.749333,10.439333 104.192667,10.528 104.678,10.528 Z M104.678,9.534 C104.071333,9.534 103.576667,9.347333 103.194,8.974 C102.811333,8.600667 102.62,8.031333 102.62,7.266 L102.62,7.266 L102.62,6.23 C102.62,5.464667 102.811333,4.895333 103.194,4.522 C103.576667,4.148667 104.071333,3.962 104.678,3.962 C105.284667,3.962 105.779333,4.148667 106.162,4.522 C106.544667,4.895333 106.736,5.464667 106.736,6.23 L106.736,6.23 L106.736,7.266 C106.736,8.031333 106.544667,8.600667 106.162,8.974 C105.779333,9.347333 105.284667,9.534 104.678,9.534 Z M110.908,10.36 L110.908,5.348 C110.908,5.114667 110.957,4.911667 111.055,4.739 C111.153,4.566333 111.281333,4.424 111.44,4.312 C111.598667,4.2 111.780667,4.116 111.986,4.06 C112.191333,4.004 112.406,3.976 112.63,3.976 C113.162,3.976 113.554,4.139333 113.806,4.466 C114.058,4.792667 114.184,5.278 114.184,5.922 L114.184,5.922 L114.184,10.36 L115.304,10.36 L115.304,5.348 C115.304,5.114667 115.350667,4.911667 115.444,4.739 C115.537333,4.566333 115.663333,4.424 115.822,4.312 C115.980667,4.2 116.160333,4.116 116.361,4.06 C116.561667,4.004 116.774,3.976 116.998,3.976 C117.548667,3.976 117.95,4.139333 118.202,4.466 C118.454,4.792667 118.58,5.278 118.58,5.922 L118.58,5.922 L118.58,10.36 L119.7,10.36 L119.7,5.726 C119.7,4.848667 119.492333,4.169667 119.077,3.689 C118.661667,3.208333 118.085333,2.968 117.348,2.968 C116.732,2.968 116.244333,3.115 115.885,3.409 C115.525667,3.703 115.280667,4.046 115.15,4.438 L115.15,4.438 L115.122,4.438 C114.926,3.915333 114.627333,3.539667 114.226,3.311 C113.824667,3.082333 113.386,2.968 112.91,2.968 C112.63,2.968 112.387333,3.003 112.182,3.073 C111.976667,3.143 111.797,3.238667 111.643,3.36 C111.489,3.481333 111.358333,3.623667 111.251,3.787 C111.143667,3.950333 111.048,4.125333 110.964,4.312 L110.964,4.312 L110.908,4.312 L110.908,3.136 L109.788,3.136 L109.788,10.36 L110.908,10.36 Z M122.57,1.442 C122.812667,1.442 122.987667,1.383667 123.095,1.267 C123.202333,1.150333 123.256,0.998667 123.256,0.812 L123.256,0.812 L123.256,0.63 C123.256,0.443333 123.202333,0.291667 123.095,0.175 C122.987667,0.058333 122.812667,0 122.57,0 C122.327333,0 122.152333,0.058333 122.045,0.175 C121.937667,0.291667 121.884,0.443333 121.884,0.63 L121.884,0.63 L121.884,0.812 C121.884,0.998667 121.937667,1.150333 122.045,1.267 C122.152333,1.383667 122.327333,1.442 122.57,1.442 Z M123.13,10.36 L123.13,3.136 L122.01,3.136 L122.01,10.36 L123.13,10.36 Z M126.63,10.36 L126.63,5.348 C126.63,5.114667 126.679,4.911667 126.777,4.739 C126.875,4.566333 127.008,4.424 127.176,4.312 C127.344,4.2 127.533,4.116 127.743,4.06 C127.953,4.004 128.17,3.976 128.394,3.976 C129.486,3.976 130.032,4.624667 130.032,5.922 L130.032,5.922 L130.032,10.36 L131.152,10.36 L131.152,5.726 C131.152,4.848667 130.935,4.169667 130.501,3.689 C130.067,3.208333 129.476667,2.968 128.73,2.968 C128.188667,2.968 127.757,3.089333 127.435,3.332 C127.113,3.574667 126.863333,3.901333 126.686,4.312 L126.686,4.312 L126.63,4.312 L126.63,3.136 L125.51,3.136 L125.51,10.36 L126.63,10.36 Z M136.052,13.328 C137.218667,13.328 138.093667,13.153 138.677,12.803 C139.260333,12.453 139.552,11.904667 139.552,11.158 C139.552,10.560667 139.349,10.091667 138.943,9.751 C138.537,9.410333 137.886,9.24 136.99,9.24 L136.99,9.24 L135.45,9.24 C135.123333,9.24 134.857333,9.202667 134.652,9.128 C134.446667,9.053333 134.344,8.908667 134.344,8.694 C134.344,8.47 134.442,8.295 134.638,8.169 C134.834,8.043 135.053333,7.947333 135.296,7.882 C135.529333,7.928667 135.762667,7.952 135.996,7.952 C136.406667,7.952 136.78,7.891333 137.116,7.77 C137.452,7.648667 137.739,7.478333 137.977,7.259 C138.215,7.039667 138.399333,6.776 138.53,6.468 C138.660667,6.16 138.726,5.824 138.726,5.46 C138.726,5.068 138.653667,4.715667 138.509,4.403 C138.364333,4.090333 138.161333,3.822 137.9,3.598 L137.9,3.598 L137.9,3.136 L139.272,3.136 L139.272,2.156 L138.194,2.156 C137.895333,2.156 137.680667,2.247 137.55,2.429 C137.419333,2.611 137.354,2.842 137.354,3.122 L137.354,3.122 L137.354,3.248 C136.952667,3.061333 136.495333,2.968 135.982,2.968 C135.571333,2.968 135.200333,3.028667 134.869,3.15 C134.537667,3.271333 134.253,3.441667 134.015,3.661 C133.777,3.880333 133.592667,4.144 133.462,4.452 C133.331333,4.76 133.266,5.096 133.266,5.46 C133.266,5.964 133.385,6.407333 133.623,6.79 C133.861,7.172667 134.194667,7.466667 134.624,7.672 L134.624,7.672 L134.624,7.728 C134.26,7.821333 133.961333,7.963667 133.728,8.155 C133.494667,8.346333 133.378,8.624 133.378,8.988 C133.378,9.454667 133.592667,9.790667 134.022,9.996 L134.022,9.996 L134.022,10.15 C133.667333,10.252667 133.387333,10.413667 133.182,10.633 C132.976667,10.852333 132.874,11.158 132.874,11.55 C132.874,12.119333 133.121333,12.558 133.616,12.866 C134.110667,13.174 134.922667,13.328 136.052,13.328 Z M135.996,7.056 C135.52,7.056 135.142,6.941667 134.862,6.713 C134.582,6.484333 134.442,6.132 134.442,5.656 L134.442,5.656 L134.442,5.264 C134.442,4.788 134.582,4.435667 134.862,4.207 C135.142,3.978333 135.52,3.864 135.996,3.864 C136.472,3.864 136.85,3.978333 137.13,4.207 C137.41,4.435667 137.55,4.788 137.55,5.264 L137.55,5.264 L137.55,5.656 C137.55,6.132 137.41,6.484333 137.13,6.713 C136.85,6.941667 136.472,7.056 135.996,7.056 Z M136.528,12.418 L135.492,12.418 C134.922667,12.418 134.519,12.306 134.281,12.082 C134.043,11.858 133.924,11.587333 133.924,11.27 C133.924,10.822 134.148,10.495333 134.596,10.29 L134.596,10.29 L137.004,10.29 C137.564,10.29 137.953667,10.376333 138.173,10.549 C138.392333,10.721667 138.502,10.952667 138.502,11.242 C138.502,11.634 138.329333,11.928 137.984,12.124 C137.638667,12.32 137.153333,12.418 136.528,12.418 L136.528,12.418 Z M146.328,10.528 C147.158667,10.528 147.812,10.327333 148.288,9.926 C148.764,9.524667 149.002,8.974 149.002,8.274 C149.002,7.723333 148.834,7.277667 148.498,6.937 C148.162,6.596333 147.592667,6.365333 146.79,6.244 L146.79,6.244 L146.23,6.16 C145.782,6.085333 145.439,5.968667 145.201,5.81 C144.963,5.651333 144.844,5.394667 144.844,5.04 C144.844,4.694667 144.963,4.421667 145.201,4.221 C145.439,4.020333 145.791333,3.92 146.258,3.92 C146.724667,3.92 147.112,4.011 147.42,4.193 C147.728,4.375 147.961333,4.578 148.12,4.802 L148.12,4.802 L148.862,4.13 C148.563333,3.766 148.215667,3.481333 147.819,3.276 C147.422333,3.070667 146.93,2.968 146.342,2.968 C145.978,2.968 145.637333,3.012333 145.32,3.101 C145.002667,3.189667 144.729667,3.322667 144.501,3.5 C144.272333,3.677333 144.092667,3.899 143.962,4.165 C143.831333,4.431 143.766,4.741333 143.766,5.096 C143.766,5.432 143.824333,5.721333 143.941,5.964 C144.057667,6.206667 144.221,6.409667 144.431,6.573 C144.641,6.736333 144.886,6.867 145.166,6.965 C145.446,7.063 145.754,7.135333 146.09,7.182 L146.09,7.182 L146.664,7.266 C147.14,7.340667 147.469,7.478333 147.651,7.679 C147.833,7.879667 147.924,8.12 147.924,8.4 C147.924,8.773333 147.791,9.062667 147.525,9.268 C147.259,9.473333 146.888,9.576 146.412,9.576 C145.954667,9.576 145.553333,9.480333 145.208,9.289 C144.862667,9.097667 144.55,8.824667 144.27,8.47 L144.27,8.47 L143.472,9.114 C143.798667,9.543333 144.188333,9.886333 144.641,10.143 C145.093667,10.399667 145.656,10.528 146.328,10.528 Z M153.706,10.528 C154.191333,10.528 154.632333,10.439333 155.029,10.262 C155.425667,10.084667 155.768667,9.830333 156.058,9.499 C156.347333,9.167667 156.571333,8.771 156.73,8.309 C156.888667,7.847 156.968,7.326667 156.968,6.748 C156.968,6.178667 156.888667,5.660667 156.73,5.194 C156.571333,4.727333 156.347333,4.328333 156.058,3.997 C155.768667,3.665667 155.425667,3.411333 155.029,3.234 C154.632333,3.056667 154.191333,2.968 153.706,2.968 C153.220667,2.968 152.777333,3.056667 152.376,3.234 C151.974667,3.411333 151.631667,3.665667 151.347,3.997 C151.062333,4.328333 150.840667,4.727333 150.682,5.194 C150.523333,5.660667 150.444,6.178667 150.444,6.748 C150.444,7.326667 150.523333,7.847 150.682,8.309 C150.840667,8.771 151.062333,9.167667 151.347,9.499 C151.631667,9.830333 151.974667,10.084667 152.376,10.262 C152.777333,10.439333 153.220667,10.528 153.706,10.528 Z M153.706,9.534 C153.099333,9.534 152.604667,9.347333 152.222,8.974 C151.839333,8.600667 151.648,8.031333 151.648,7.266 L151.648,7.266 L151.648,6.23 C151.648,5.464667 151.839333,4.895333 152.222,4.522 C152.604667,4.148667 153.099333,3.962 153.706,3.962 C154.312667,3.962 154.807333,4.148667 155.19,4.522 C155.572667,4.895333 155.764,5.464667 155.764,6.23 L155.764,6.23 L155.764,7.266 C155.764,8.031333 155.572667,8.600667 155.19,8.974 C154.807333,9.347333 154.312667,9.534 153.706,9.534 Z M161.546,10.528 C162.031333,10.528 162.472333,10.439333 162.869,10.262 C163.265667,10.084667 163.608667,9.830333 163.898,9.499 C164.187333,9.167667 164.411333,8.771 164.57,8.309 C164.728667,7.847 164.808,7.326667 164.808,6.748 C164.808,6.178667 164.728667,5.660667 164.57,5.194 C164.411333,4.727333 164.187333,4.328333 163.898,3.997 C163.608667,3.665667 163.265667,3.411333 162.869,3.234 C162.472333,3.056667 162.031333,2.968 161.546,2.968 C161.060667,2.968 160.617333,3.056667 160.216,3.234 C159.814667,3.411333 159.471667,3.665667 159.187,3.997 C158.902333,4.328333 158.680667,4.727333 158.522,5.194 C158.363333,5.660667 158.284,6.178667 158.284,6.748 C158.284,7.326667 158.363333,7.847 158.522,8.309 C158.680667,8.771 158.902333,9.167667 159.187,9.499 C159.471667,9.830333 159.814667,10.084667 160.216,10.262 C160.617333,10.439333 161.060667,10.528 161.546,10.528 Z M161.546,9.534 C160.939333,9.534 160.444667,9.347333 160.062,8.974 C159.679333,8.600667 159.488,8.031333 159.488,7.266 L159.488,7.266 L159.488,6.23 C159.488,5.464667 159.679333,4.895333 160.062,4.522 C160.444667,4.148667 160.939333,3.962 161.546,3.962 C162.152667,3.962 162.647333,4.148667 163.03,4.522 C163.412667,4.895333 163.604,5.464667 163.604,6.23 L163.604,6.23 L163.604,7.266 C163.604,8.031333 163.412667,8.600667 163.03,8.974 C162.647333,9.347333 162.152667,9.534 161.546,9.534 Z M167.776,10.36 L167.776,5.348 C167.776,5.114667 167.825,4.911667 167.923,4.739 C168.021,4.566333 168.154,4.424 168.322,4.312 C168.49,4.2 168.679,4.116 168.889,4.06 C169.099,4.004 169.316,3.976 169.54,3.976 C170.632,3.976 171.178,4.624667 171.178,5.922 L171.178,5.922 L171.178,10.36 L172.298,10.36 L172.298,5.726 C172.298,4.848667 172.081,4.169667 171.647,3.689 C171.213,3.208333 170.622667,2.968 169.876,2.968 C169.334667,2.968 168.903,3.089333 168.581,3.332 C168.259,3.574667 168.009333,3.901333 167.832,4.312 L167.832,4.312 L167.776,4.312 L167.776,3.136 L166.656,3.136 L166.656,10.36 L167.776,10.36 Z"></path>
        </g>
    </g>
</svg>