<?xml version="1.0" encoding="UTF-8"?>
<svg width="320px" height="180px" viewBox="0 0 320 180" version="1.1" xmlns="http://www.w3.org/2000/svg" xmlns:xlink="http://www.w3.org/1999/xlink">
    <title>content-group-simple</title>
    <g id="content-group-simple" stroke="none" stroke-width="1" fill="none" fill-rule="evenodd">
        <g id="Group-4" transform="translate(72.000000, 24.000000)">
            <rect id="Rectangle-Copy-14" stroke="#C6C6C6" stroke-width="0.822695035" fill="#FFFFFF" x="0" y="0" width="176" height="132"></rect>
            <g id="Group-2" transform="translate(53.255682, 6.673069)" fill="#8D8D8D">
                <rect id="Rectangle-Copy" x="0" y="0" width="50.1136364" height="3.33653426"></rect>
            </g>
            <rect id="Rectangle-Copy-24" fill="#C6C6C6" x="53.2556818" y="109.271497" width="27" height="13"></rect>
            <g id="Group" transform="translate(53.255682, 16.682671)" fill="#C6C6C6">
                <rect id="Rectangle-Copy-4" x="0" y="0" width="69" height="1.66826713"></rect>
                <rect id="Rectangle-Copy-7" x="0" y="3.33653426" width="34.2443182" height="1.66826713"></rect>
            </g>
            <g id="Group-3" transform="translate(53.255682, 69.233086)">
                <rect id="Rectangle-Copy-4" fill="#C6C6C6" x="0" y="6.67306853" width="69" height="1.66826713"></rect>
                <rect id="Rectangle-Copy-3" fill="#8D8D8D" x="0" y="0" width="32.5738636" height="3.33653426"></rect>
                <rect id="Rectangle-Copy-7" fill="#C6C6C6" x="0" y="10.0096028" width="34.2443182" height="1.66826713"></rect>
            </g>
            <g id="Group-3-Copy" transform="translate(53.255682, 87.584024)">
                <rect id="Rectangle-Copy-4" fill="#C6C6C6" x="0" y="6.67306853" width="69" height="1.66826713"></rect>
                <rect id="Rectangle-Copy-3" fill="#8D8D8D" x="0" y="0" width="32.5738636" height="3.33653426"></rect>
                <rect id="Rectangle-Copy-7" fill="#C6C6C6" x="0" y="10.0096028" width="34.2443182" height="1.66826713"></rect>
            </g>
            <rect id="Rectangle-Copy-25" fill="#C6C6C6" x="53.2556818" y="28.3605412" width="69" height="34"></rect>
        </g>
    </g>
</svg>