<?xml version="1.0" encoding="UTF-8"?>
<svg width="320px" height="180px" viewBox="0 0 320 180" version="1.1" xmlns="http://www.w3.org/2000/svg" xmlns:xlink="http://www.w3.org/1999/xlink">
    <title>content-block-simple</title>
    <g id="content-block-simple" stroke="none" stroke-width="1" fill="none" fill-rule="evenodd">
        <g id="Group-3-Copy" transform="translate(72.000000, 24.000000)">
            <g id="Group-3" fill="#FFFFFF" stroke="#C6C6C6">
                <rect id="Rectangle-Copy-14" x="0" y="0" width="176" height="132"></rect>
            </g>
            <g id="Group-2" transform="translate(47.000000, 8.000000)" fill="#8D8D8D">
                <rect id="Rectangle-Copy" x="0" y="0" width="60" height="4"></rect>
                <rect id="Rectangle-Copy-2" x="0" y="7" width="60" height="4"></rect>
                <rect id="Rectangle-Copy-3" x="0" y="14" width="39" height="4"></rect>
            </g>
            <rect id="Rectangle-Copy-24" fill="#C6C6C6" x="47" y="98" width="32" height="16"></rect>
            <g id="Group" transform="translate(47.000000, 36.000000)" fill="#C6C6C6">
                <rect id="Rectangle-Copy-4" x="0" y="0" width="82" height="2"></rect>
                <rect id="Rectangle-Copy-5" x="0" y="4" width="82" height="2"></rect>
                <rect id="Rectangle-Copy-6" x="0" y="8" width="82" height="2"></rect>
                <rect id="Rectangle-Copy-8" x="0" y="12" width="82" height="2"></rect>
                <rect id="Rectangle-Copy-9" x="0" y="16" width="82" height="2"></rect>
                <rect id="Rectangle-Copy-10" x="0" y="20" width="82" height="2"></rect>
                <rect id="Rectangle-Copy-11" x="0" y="24" width="82" height="2"></rect>
                <rect id="Rectangle-Copy-12" x="0" y="28" width="82" height="2"></rect>
                <rect id="Rectangle-Copy-13" x="0" y="32" width="82" height="2"></rect>
                <rect id="Rectangle-Copy-15" x="0" y="36" width="82" height="2"></rect>
                <rect id="Rectangle-Copy-16" x="0" y="40" width="82" height="2"></rect>
                <rect id="Rectangle-Copy-17" x="0" y="44" width="82" height="2"></rect>
                <rect id="Rectangle-Copy-18" x="0" y="48" width="82" height="2"></rect>
                <rect id="Rectangle-Copy-7" x="0" y="52" width="41" height="2"></rect>
            </g>
        </g>
    </g>
</svg>