<?xml version="1.0" encoding="UTF-8"?>
<svg width="320px" height="180px" viewBox="0 0 320 180" version="1.1" xmlns="http://www.w3.org/2000/svg" xmlns:xlink="http://www.w3.org/1999/xlink">
    <title>content-section</title>
    <g id="content-section" stroke="none" stroke-width="1" fill="none" fill-rule="evenodd">
        <rect id="Rectangle-Copy-15" stroke="#C6C6C6" fill="#FFFFFF" x="72" y="24" width="176" height="132"></rect>
        <g transform="translate(78.200000, 33.900000)">
            <g id="Group-2" transform="translate(0.000000, 0.200000)" fill="#8D8D8D">
                <rect id="Rectangle-Copy" x="0" y="4.4408921e-16" width="32.3" height="4"></rect>
                <rect id="Rectangle-Copy-2" x="0" y="7" width="32.3" height="4"></rect>
                <rect id="Rectangle-Copy-3" x="0" y="14" width="21" height="4"></rect>
            </g>
            <rect id="Rectangle-Copy-24" fill="#E0E0E0" x="40.8" y="62" width="32" height="16"></rect>
            <g id="Group" transform="translate(40.800000, 0.000000)" fill="#E0E0E0">
                <rect id="Rectangle-Copy-4" x="0" y="0" width="82" height="2"></rect>
                <rect id="Rectangle-Copy-5" x="0" y="4" width="82" height="2"></rect>
                <rect id="Rectangle-Copy-6" x="0" y="8" width="82" height="2"></rect>
                <rect id="Rectangle-Copy-8" x="0" y="12" width="82" height="2"></rect>
                <rect id="Rectangle-Copy-9" x="0" y="16" width="82" height="2"></rect>
                <rect id="Rectangle-Copy-10" x="0" y="20" width="82" height="2"></rect>
                <rect id="Rectangle-Copy-11" x="0" y="24" width="82" height="2"></rect>
                <rect id="Rectangle-Copy-12" x="0" y="28" width="82" height="2"></rect>
                <rect id="Rectangle-Copy-13" x="0" y="32" width="82" height="2"></rect>
                <rect id="Rectangle-Copy-15" x="0" y="36" width="82" height="2"></rect>
                <rect id="Rectangle-Copy-16" x="0" y="40" width="82" height="2"></rect>
                <rect id="Rectangle-Copy-17" x="0" y="44" width="82" height="2"></rect>
                <rect id="Rectangle-Copy-18" x="0" y="48" width="82" height="2"></rect>
                <rect id="Rectangle-Copy-7" x="0" y="52" width="41" height="2"></rect>
            </g>
        </g>
    </g>
</svg>