<?xml version="1.0" encoding="UTF-8"?>
<svg width="320px" height="180px" viewBox="0 0 320 180" version="1.1" xmlns="http://www.w3.org/2000/svg" xmlns:xlink="http://www.w3.org/1999/xlink">
    <title>content-block-segmented</title>
    <g id="content-block-segmented" stroke="none" stroke-width="1" fill="none" fill-rule="evenodd">
        <g id="Group-3" transform="translate(72.000000, 24.000000)">
            <rect id="Rectangle-Copy-14" stroke="#C6C6C6" fill="#FFFFFF" x="0" y="0" width="176" height="132"></rect>
            <g id="Group-2" transform="translate(47.000000, 8.000000)" fill="#8D8D8D">
                <rect id="Rectangle-Copy" x="0" y="0" width="60" height="4"></rect>
                <rect id="Rectangle-Copy-2" x="0" y="7" width="60" height="4"></rect>
                <rect id="Rectangle-Copy-3" x="0" y="14" width="39" height="4"></rect>
            </g>
            <rect id="Rectangle-Copy-24" fill="#C6C6C6" x="47" y="104" width="32" height="16"></rect>
            <g id="Group" transform="translate(47.000000, 34.000000)" fill="#C6C6C6">
                <rect id="Rectangle-Copy-4" x="0" y="0" width="82" height="2"></rect>
                <rect id="Rectangle-Copy-5" x="0" y="4" width="82" height="2"></rect>
                <rect id="Rectangle-Copy-7" x="0" y="8" width="41" height="2"></rect>
            </g>
            <g id="Group-Copy" transform="translate(47.000000, 52.000000)">
                <rect id="Rectangle-Copy-4" fill="#C6C6C6" x="0" y="8" width="82" height="2"></rect>
                <rect id="Rectangle-Copy-3" fill="#8D8D8D" x="0" y="0" width="39" height="4"></rect>
                <rect id="Rectangle-Copy-5" fill="#C6C6C6" x="0" y="12" width="82" height="2"></rect>
                <rect id="Rectangle-Copy-7" fill="#C6C6C6" x="0" y="16" width="41" height="2"></rect>
            </g>
            <g id="Group-Copy-2" transform="translate(47.000000, 78.000000)">
                <rect id="Rectangle-Copy-4" fill="#C6C6C6" x="0" y="8" width="82" height="2"></rect>
                <rect id="Rectangle-Copy-3" fill="#8D8D8D" x="0" y="0" width="39" height="4"></rect>
                <rect id="Rectangle-Copy-5" fill="#C6C6C6" x="0" y="12" width="82" height="2"></rect>
                <rect id="Rectangle-Copy-7" fill="#C6C6C6" x="0" y="16" width="41" height="2"></rect>
            </g>
        </g>
    </g>
</svg>