<?xml version="1.0" encoding="UTF-8"?>
<svg width="320px" height="180px" viewBox="0 0 320 180" version="1.1" xmlns="http://www.w3.org/2000/svg" xmlns:xlink="http://www.w3.org/1999/xlink">
    <title>dot-com-shell</title>
    <g id="dot-com-shell" stroke="none" stroke-width="1" fill="none" fill-rule="evenodd">
        <rect id="Rectangle-Copy-29" fill="#262626" x="60" y="78" width="200" height="78"></rect>
        <rect id="Rectangle-Copy-30" fill="#F3F3F3" x="60" y="24" width="200" height="12"></rect>
        <rect id="Rectangle-Copy-31" fill="#3D3D3D" x="60" y="36" width="49" height="26"></rect>
        <rect id="Rectangle-Copy-32" fill="#C6C6C6" x="109" y="36" width="151" height="26"></rect>
        <rect id="Rectangle-Copy-33" fill="#C6C6C6" x="68" y="28" width="18" height="5"></rect>
        <rect id="Rectangle-Copy-34" fill="#C6C6C6" x="67" y="88" width="32" height="13"></rect>
        <rect id="Rectangle-Copy-35" fill="#FFFFFF" x="116" y="88" width="21" height="3"></rect>
        <rect id="Rectangle-Copy-36" fill="#FFFFFF" x="165" y="88" width="21" height="3"></rect>
        <rect id="Rectangle-Copy-37" fill="#FFFFFF" x="215" y="88" width="21" height="3"></rect>
        <rect id="Rectangle-Copy-38" fill="#C6C6C6" x="116" y="96" width="21" height="3"></rect>
        <rect id="Rectangle-Copy-39" fill="#C6C6C6" x="165" y="96" width="21" height="3"></rect>
        <rect id="Rectangle-Copy-40" fill="#C6C6C6" x="215" y="96" width="21" height="3"></rect>
        <rect id="Rectangle-Copy-41" fill="#C6C6C6" x="116" y="104" width="21" height="3"></rect>
        <rect id="Rectangle-Copy-42" fill="#C6C6C6" x="165" y="104" width="21" height="3"></rect>
        <rect id="Rectangle-Copy-43" fill="#C6C6C6" x="215" y="104" width="21" height="3"></rect>
        <rect id="Rectangle-Copy-44" fill="#C6C6C6" x="116" y="112" width="21" height="3"></rect>
        <rect id="Rectangle-Copy-45" fill="#C6C6C6" x="165" y="112" width="21" height="3"></rect>
        <rect id="Rectangle-Copy-48" fill="#C6C6C6" x="68" y="143" width="36" height="4"></rect>
        <rect id="Rectangle-Copy-52" fill="#C6C6C6" x="165" y="120" width="21" height="3"></rect>
        <rect id="Rectangle-Copy-54" fill="#C6C6C6" x="91" y="29" width="22" height="3"></rect>
        <rect id="Rectangle-Copy-55" fill="#D8D8D8" x="69" y="53" width="29" height="3"></rect>
        <rect id="Rectangle-Copy-56" fill="#C6C6C6" x="118" y="29" width="22" height="3"></rect>
        <rect id="Rectangle-Copy-57" fill="#C6C6C6" x="236" y="28" width="5" height="5"></rect>
        <rect id="Rectangle-Copy-58" fill="#C6C6C6" x="246" y="28" width="5" height="5"></rect>
    </g>
</svg>