<?xml version="1.0" encoding="UTF-8"?>
<svg width="320px" height="180px" viewBox="0 0 320 180" version="1.1" xmlns="http://www.w3.org/2000/svg" xmlns:xlink="http://www.w3.org/1999/xlink">
    <title>expressive-modal</title>
    <defs>
        <rect id="path-1" x="0" y="0" width="212" height="116"></rect>
        <filter x="-4.7%" y="-6.9%" width="109.4%" height="117.2%" filterUnits="objectBoundingBox" id="filter-2">
            <feOffset dx="0" dy="2" in="SourceAlpha" result="shadowOffsetOuter1"></feOffset>
            <feGaussianBlur stdDeviation="3" in="shadowOffsetOuter1" result="shadowBlurOuter1"></feGaussianBlur>
            <feColorMatrix values="0 0 0 0 0.862745106   0 0 0 0 0.862745106   0 0 0 0 0.862745106  0 0 0 1 0" type="matrix" in="shadowBlurOuter1"></feColorMatrix>
        </filter>
        <polygon id="path-3" points="7.0744375 6.5 9.75 3.8244375 9.1755625 3.25 6.5 5.9255625 3.8244375 3.25 3.25 3.8244375 5.9255625 6.5 3.25 9.1755625 3.8244375 9.75 6.5 7.0744375 9.1755625 9.75 9.75 9.1755625"></polygon>
    </defs>
    <g id="expressive-modal" stroke="none" stroke-width="1" fill="none" fill-rule="evenodd">
        <g id="Group-38-Copy" transform="translate(54.000000, 32.000000)">
            <g id="Rectangle" fill="black" fill-opacity="1">
                <use filter="url(#filter-2)" xlink:href="#path-1"></use>
            </g>
            <g id="color/gray/10-copy-10" fill="#F3F3F3">
                <rect id="Rectangle" x="0" y="0" width="212" height="116"></rect>
            </g>
        </g>
        <g id="icon/navigation/close/16-copy-2" transform="translate(245.000000, 39.000000)">
            <mask id="mask-4" fill="white">
                <use xlink:href="#path-3"></use>
            </mask>
            <use id="icon-color" fill="#000000" xlink:href="#path-3"></use>
        </g>
        <rect id="Rectangle-Copy-4" fill="#A8A8A8" x="63" y="45" width="58" height="7"></rect>
        <rect id="Rectangle-Copy-12" fill="#C6C6C6" x="63" y="61" width="148" height="5"></rect>
        <rect id="Rectangle-Copy-16" fill="#C6C6C6" x="63" y="81" width="148" height="5"></rect>
        <rect id="Rectangle-Copy-17" fill="#0F6DFF" x="63" y="122" width="69" height="16"></rect>
        <rect id="Rectangle-Copy-18" fill="#C6C6C6" x="63" y="71" width="120.992701" height="5"></rect>
    </g>
</svg>