<?xml version="1.0" encoding="UTF-8"?>
<svg width="320px" height="180px" viewBox="0 0 320 180" version="1.1" xmlns="http://www.w3.org/2000/svg" xmlns:xlink="http://www.w3.org/1999/xlink">
    <title>feature-card</title>
    <defs>
        <polygon id="path-1" points="7.3125 2.4375 6.7396875 3.0103125 9.8190625 6.09375 1.21875 6.09375 1.21875 6.90625 9.8190625 6.90625 6.7396875 9.9896875 7.3125 10.5625 11.375 6.5"></polygon>
        <path d="M17.8125,13.125 C16.2591991,13.125 15,11.8658009 15,10.3125 C15,8.75919914 16.2591991,7.5 17.8125,7.5 C19.3658009,7.5 20.625,8.75919914 20.625,10.3125 C20.625,11.0584214 20.3286839,11.7737918 19.8012378,12.3012378 C19.2737918,12.8286839 18.5584214,13.125 17.8125,13.125 L17.8125,13.125 Z M17.8125,9.375 C17.294733,9.375 16.875,9.79473305 16.875,10.3125 C16.875,10.830267 17.294733,11.25 17.8125,11.25 C18.330267,11.25 18.75,10.830267 18.75,10.3125 C18.75,9.79473305 18.330267,9.375 17.8125,9.375 Z M24.515625,3.75 L5.484375,3.75 C4.52650614,3.75 3.75,4.52650614 3.75,5.484375 L3.75,24.515625 C3.75,24.9756098 3.93272827,25.4167549 4.25798668,25.7420133 C4.58324508,26.0672717 5.02439015,26.25 5.484375,26.25 L24.515625,26.25 C24.9756098,26.25 25.4167549,26.0672717 25.7420133,25.7420133 C26.0672717,25.4167549 26.25,24.9756098 26.25,24.515625 L26.25,5.484375 C26.25,4.52650614 25.4734939,3.75 24.515625,3.75 Z M24.375,5.625 L24.375,19.996875 L20.86875,16.490625 C20.5170595,16.138543 20.0398298,15.9407125 19.5421875,15.9407125 C19.0445452,15.9407125 18.5673155,16.138543 18.215625,16.490625 L16.875,17.859375 L11.71875,12.740625 C11.3670595,12.388543 10.8898298,12.1907125 10.3921875,12.1907125 C9.89454516,12.1907125 9.41731548,12.388543 9.065625,12.740625 L5.625,16.18125 L5.625,5.625 L24.375,5.625 Z M5.625,24.375 L5.625,18.825 L10.3875,14.0625 L10.3875,14.0625 L15.515625,19.190625 C15.8673155,19.542707 16.3445452,19.7405375 16.8421875,19.7405375 C17.3398298,19.7405375 17.8170595,19.542707 18.16875,19.190625 L19.5375,17.8125 L19.5375,17.8125 L24.375,22.65 L24.375,24.375 L5.625,24.375 Z" id="path-3"></path>
    </defs>
    <g id="feature-card" stroke="none" stroke-width="1" fill="none" fill-rule="evenodd">
        <rect id="Rectangle-Copy-50" fill="#C6C6C6" x="60" y="40" width="100" height="100"></rect>
        <rect id="Rectangle-Copy-51" fill="#262626" x="160" y="40" width="100" height="100"></rect>
        <g id="icon/navigation/close/16-copy" transform="translate(241.000000, 122.000000)">
            <mask id="mask-2" fill="white">
                <use xlink:href="#path-1"></use>
            </mask>
            <use id="icon-color" fill="#7EB1FF" xlink:href="#path-1"></use>
        </g>
        <rect id="Rectangle-Copy-29" fill="#C6C6C6" x="168" y="48" width="72" height="4"></rect>
        <rect id="Rectangle-Copy-30" fill="#C6C6C6" x="168" y="56" width="55" height="4"></rect>
        <g id="icon/formatting/image/16-copy-2" transform="translate(95.000000, 75.000000)">
            <mask id="mask-4" fill="white">
                <use xlink:href="#path-3"></use>
            </mask>
            <use id="icon-color" fill="#8E8E93" xlink:href="#path-3"></use>
        </g>
    </g>
</svg>