<?xml version="1.0" encoding="UTF-8"?>
<svg width="320px" height="180px" viewBox="0 0 320 180" version="1.1" xmlns="http://www.w3.org/2000/svg" xmlns:xlink="http://www.w3.org/1999/xlink">
    <title>footer</title>
    <g id="footer" stroke="none" stroke-width="1" fill="none" fill-rule="evenodd">
        <rect id="Rectangle-Copy-29" fill="#262626" x="60" y="42" width="200" height="96"></rect>
        <rect id="Rectangle-Copy-34" fill="#C6C6C6" x="67" y="52" width="32" height="13"></rect>
        <rect id="Rectangle-Copy-35" fill="#FFFFFF" x="116" y="52" width="21" height="3"></rect>
        <rect id="Rectangle-Copy-36" fill="#FFFFFF" x="165" y="52" width="21" height="3"></rect>
        <rect id="Rectangle-Copy-37" fill="#FFFFFF" x="215" y="52" width="21" height="3"></rect>
        <rect id="Rectangle-Copy-38" fill="#C6C6C6" x="116" y="60" width="21" height="3"></rect>
        <rect id="Rectangle-Copy-39" fill="#C6C6C6" x="165" y="60" width="21" height="3"></rect>
        <rect id="Rectangle-Copy-40" fill="#C6C6C6" x="215" y="60" width="21" height="3"></rect>
        <rect id="Rectangle-Copy-41" fill="#C6C6C6" x="116" y="68" width="21" height="3"></rect>
        <rect id="Rectangle-Copy-42" fill="#C6C6C6" x="165" y="68" width="21" height="3"></rect>
        <rect id="Rectangle-Copy-43" fill="#C6C6C6" x="215" y="68" width="21" height="3"></rect>
        <rect id="Rectangle-Copy-44" fill="#C6C6C6" x="116" y="76" width="21" height="3"></rect>
        <rect id="Rectangle-Copy-45" fill="#C6C6C6" x="165" y="76" width="21" height="3"></rect>
        <rect id="Rectangle-Copy-46" fill="#C6C6C6" x="165" y="92" width="21" height="3"></rect>
        <rect id="Rectangle-Copy-47" fill="#C6C6C6" x="116" y="84" width="21" height="3"></rect>
        <rect id="Rectangle-Copy-48" fill="#C6C6C6" x="68" y="115" width="36" height="4"></rect>
        <rect id="Rectangle-Copy-49" fill="#C6C6C6" x="116" y="128" width="21" height="3"></rect>
        <rect id="Rectangle-Copy-50" fill="#C6C6C6" x="165" y="128" width="21" height="3"></rect>
        <rect id="Rectangle-Copy-51" fill="#C6C6C6" x="214" y="128" width="21" height="3"></rect>
        <rect id="Rectangle-Copy-52" fill="#C6C6C6" x="165" y="84" width="21" height="3"></rect>
        <rect id="Rectangle-Copy-53" fill="#C6C6C6" x="165" y="100" width="21" height="3"></rect>
        <line x1="68" y1="123.654475" x2="253.294693" y2="123.654475" id="Path-3-Copy" stroke="#979797"></line>
    </g>
</svg>