<?xml version="1.0" encoding="UTF-8"?>
<svg width="320px" height="180px" viewBox="0 0 320 180" version="1.1" xmlns="http://www.w3.org/2000/svg" xmlns:xlink="http://www.w3.org/1999/xlink">
    <title>layout</title>
    <g id="layout" stroke="none" stroke-width="1" fill="none" fill-rule="evenodd">
        <rect id="Rectangle-Copy-55" fill="#C6C6C6" x="105" y="57" width="101.612403" height="4"></rect>
        <rect id="Rectangle-Copy-56" fill="#C6C6C6" x="105" y="90" width="101.612403" height="4"></rect>
        <rect id="Rectangle-Copy-61" fill="#C6C6C6" x="105" y="123" width="101.612403" height="4"></rect>
        <rect id="Rectangle-Copy-62" fill="#C6C6C6" x="105" y="64" width="113" height="4"></rect>
        <rect id="Rectangle-Copy-65" fill="#C6C6C6" x="105" y="97" width="113" height="4"></rect>
        <rect id="Rectangle-Copy-66" fill="#C6C6C6" x="105" y="130" width="113" height="4"></rect>
        <rect id="Rectangle-Copy-67" fill="#C6C6C6" x="105" y="50" width="113" height="4"></rect>
        <rect id="Rectangle-Copy-68" fill="#C6C6C6" x="105" y="83" width="113" height="4"></rect>
        <rect id="Rectangle-Copy-69" fill="#C6C6C6" x="105" y="116" width="113" height="4"></rect>
        <rect id="Rectangle-Copy-70" fill="#C6C6C6" x="234" y="50" width="22" height="4"></rect>
        <rect id="Rectangle-Copy-71" fill="#C6C6C6" x="56" y="50" width="22" height="4"></rect>
        <rect id="Rectangle-Copy-72" fill="#C6C6C6" x="234" y="57" width="25" height="4"></rect>
        <rect id="Rectangle-Copy-73" fill="#C6C6C6" x="56" y="57" width="25" height="4"></rect>
        <rect id="Rectangle-Copy-74" fill="#C6C6C6" x="234" y="64" width="22" height="4"></rect>
        <rect id="Rectangle-Copy-75" fill="#C6C6C6" x="56" y="64" width="22" height="4"></rect>
        <rect id="Rectangle-Copy-76" fill="#A8A8A8" x="105" y="39" width="47" height="6"></rect>
        <rect id="Rectangle-Copy-77" fill="#A8A8A8" x="56" y="39" width="30" height="6"></rect>
        <rect id="Rectangle-Copy-78" fill="#A8A8A8" x="234" y="39" width="30" height="6"></rect>
        <rect id="Rectangle-Copy-79" fill="#C6C6C6" x="105" y="71" width="101.612403" height="4"></rect>
        <rect id="Rectangle-Copy-80" fill="#C6C6C6" x="105" y="104" width="101.612403" height="4"></rect>
        <rect id="Rectangle-Copy-81" fill="#C6C6C6" x="105" y="137" width="101.612403" height="4"></rect>
    </g>
</svg>