<?xml version="1.0" encoding="UTF-8"?>
<svg width="320px" height="180px" viewBox="0 0 320 180" version="1.1" xmlns="http://www.w3.org/2000/svg" xmlns:xlink="http://www.w3.org/1999/xlink">
    <title>lightbox-media-viewer</title>
    <defs>
        <polygon id="path-1" points="7.0744375 6.5 9.75 3.8244375 9.1755625 3.25 6.5 5.9255625 3.8244375 3.25 3.25 3.8244375 5.9255625 6.5 3.25 9.1755625 3.8244375 9.75 6.5 7.0744375 9.1755625 9.75 9.75 9.1755625"></polygon>
        <path d="M16.03125,11.8125 C14.6332792,11.8125 13.5,10.6792208 13.5,9.28125 C13.5,7.88327923 14.6332792,6.75 16.03125,6.75 C17.4292208,6.75 18.5625,7.88327923 18.5625,9.28125 C18.5625,9.95257924 18.2958155,10.5964126 17.821114,11.071114 C17.3464126,11.5458155 16.7025792,11.8125 16.03125,11.8125 L16.03125,11.8125 Z M16.03125,8.4375 C15.5652597,8.4375 15.1875,8.81525974 15.1875,9.28125 C15.1875,9.74724026 15.5652597,10.125 16.03125,10.125 C16.4972403,10.125 16.875,9.74724026 16.875,9.28125 C16.875,8.81525974 16.4972403,8.4375 16.03125,8.4375 Z M22.0640625,3.375 L4.9359375,3.375 C4.07385552,3.375 3.375,4.07385552 3.375,4.9359375 L3.375,22.0640625 C3.375,22.4780489 3.53945544,22.8750794 3.83218801,23.167812 C4.12492057,23.4605446 4.52195114,23.625 4.9359375,23.625 L22.0640625,23.625 C22.4780489,23.625 22.8750794,23.4605446 23.167812,23.167812 C23.4605446,22.8750794 23.625,22.4780489 23.625,22.0640625 L23.625,4.9359375 C23.625,4.07385552 22.9261445,3.375 22.0640625,3.375 Z M21.9375,5.0625 L21.9375,17.9971875 L18.781875,14.8415625 C18.4653536,14.5246887 18.0358469,14.3466413 17.5879687,14.3466413 C17.1400906,14.3466413 16.7105839,14.5246887 16.3940625,14.8415625 L15.1875,16.0734375 L10.546875,11.4665625 C10.2303536,11.1496887 9.80084686,10.9716413 9.35296875,10.9716413 C8.90509064,10.9716413 8.47558393,11.1496887 8.1590625,11.4665625 L5.0625,14.563125 L5.0625,5.0625 L21.9375,5.0625 Z M5.0625,21.9375 L5.0625,16.9425 L9.34875,12.65625 L9.34875,12.65625 L13.9640625,17.2715625 C14.2805839,17.5884363 14.7100906,17.7664837 15.1579687,17.7664837 C15.6058469,17.7664837 16.0353536,17.5884363 16.351875,17.2715625 L17.58375,16.03125 L17.58375,16.03125 L21.9375,20.385 L21.9375,21.9375 L5.0625,21.9375 Z" id="path-3"></path>
    </defs>
    <g id="lightbox-media-viewer" stroke="none" stroke-width="1" fill="none" fill-rule="evenodd">
        <rect id="Rectangle-Copy" fill="#A8A8A8" x="56" y="31" width="208" height="118"></rect>
        <rect id="Rectangle-Copy-2" fill="#F3F3F3" x="61" y="37" width="197" height="106"></rect>
        <rect id="Rectangle-Copy-26" fill="#C6C6C6" x="186" y="100" width="56" height="4"></rect>
        <rect id="Rectangle-Copy-27" fill="#C6C6C6" x="186" y="107" width="49.3559322" height="4"></rect>
        <rect id="Rectangle-Copy-28" fill="#C6C6C6" x="186" y="114" width="56" height="4"></rect>
        <rect id="Rectangle-Copy-29" fill="#C6C6C6" x="186" y="121" width="49.3559322" height="4"></rect>
        <rect id="Rectangle-Copy-30" fill="#C6C6C6" x="186" y="128" width="56" height="4"></rect>
        <g id="icon/navigation/close/16-copy" transform="translate(240.000000, 43.000000)">
            <mask id="mask-2" fill="white">
                <use xlink:href="#path-1"></use>
            </mask>
            <use id="icon-color" fill="#000000" xlink:href="#path-1"></use>
        </g>
        <rect id="Rectangle-Copy-31" fill="#BEBEBE" x="67" y="43" width="111" height="94"></rect>
        <rect id="Rectangle-Copy-32" fill="#A8A8A8" x="186" y="92" width="25" height="5"></rect>
        <g id="icon/formatting/image/16-copy-3" transform="translate(111.000000, 78.000000)">
            <mask id="mask-4" fill="white">
                <use xlink:href="#path-3"></use>
            </mask>
            <use id="icon-color" fill="#8E8E93" xlink:href="#path-3"></use>
        </g>
    </g>
</svg>