<svg width="640" height="360" viewBox="0 0 640 360" fill="none" xmlns="http://www.w3.org/2000/svg">
<g id="link-with-icon">
<path id="Path" d="M228.232 192V175.248H230.248V190.224H237.376V192H228.232Z" fill="#0F62FE"/>
<path id="Shape" fill-rule="evenodd" clip-rule="evenodd" d="M240.124 176.412C240.308 176.612 240.608 176.712 241.024 176.712C241.44 176.712 241.74 176.612 241.924 176.412C242.108 176.212 242.2 175.952 242.2 175.632V175.32C242.2 175 242.108 174.74 241.924 174.54C241.74 174.34 241.44 174.24 241.024 174.24C240.608 174.24 240.308 174.34 240.124 174.54C239.94 174.74 239.848 175 239.848 175.32V175.632C239.848 175.952 239.94 176.212 240.124 176.412ZM241.984 192V179.616H240.064V192H241.984Z" fill="#0F62FE"/>
<path id="Path_2" d="M246.064 192V179.616H247.984V181.632H248.08C248.384 180.928 248.812 180.368 249.364 179.952C249.916 179.536 250.656 179.328 251.584 179.328C252.864 179.328 253.876 179.74 254.62 180.564C255.364 181.388 255.736 182.552 255.736 184.056V192H253.816V184.392C253.816 182.168 252.88 181.056 251.008 181.056C250.624 181.056 250.252 181.104 249.892 181.2C249.532 181.296 249.208 181.44 248.92 181.632C248.632 181.824 248.404 182.068 248.236 182.364C248.068 182.66 247.984 183.008 247.984 183.408V192H246.064Z" fill="#0F62FE"/>
<path id="Path_3" d="M259.696 174.24H261.616V185.496H261.712L263.608 183.384L267.112 179.616H269.44L264.856 184.512L269.896 192H267.568L263.464 185.688L261.616 187.584V192H259.696V174.24Z" fill="#0F62FE"/>
<path id="Path_4" d="M276.712 179.616H278.584L279.904 184.968L281.224 190.392H281.272L282.784 184.968L284.344 179.616H286.048L287.656 184.968L289.192 190.392H289.24L290.512 184.968L291.856 179.616H293.656L290.368 192H287.992L286.264 186.048L285.184 182.28H285.136L284.08 186.048L282.352 192H280.024L276.712 179.616Z" fill="#0F62FE"/>
<path id="Shape_2" fill-rule="evenodd" clip-rule="evenodd" d="M296.5 176.412C296.684 176.612 296.984 176.712 297.4 176.712C297.816 176.712 298.116 176.612 298.3 176.412C298.484 176.212 298.576 175.952 298.576 175.632V175.32C298.576 175 298.484 174.74 298.3 174.54C298.116 174.34 297.816 174.24 297.4 174.24C296.984 174.24 296.684 174.34 296.5 174.54C296.316 174.74 296.224 175 296.224 175.32V175.632C296.224 175.952 296.316 176.212 296.5 176.412ZM298.36 192V179.616H296.44V192H298.36Z" fill="#0F62FE"/>
<path id="Path_5" d="M305.176 192C304.504 192 303.996 191.812 303.652 191.436C303.308 191.06 303.136 190.568 303.136 189.96V181.296H301.096V179.616H302.248C302.664 179.616 302.948 179.532 303.1 179.364C303.252 179.196 303.328 178.904 303.328 178.488V176.184H305.056V179.616H307.768V181.296H305.056V190.32H307.576V192H305.176Z" fill="#0F62FE"/>
<path id="Path_6" d="M310.864 174.24H312.784V181.632H312.88C313.184 180.928 313.612 180.368 314.164 179.952C314.716 179.536 315.456 179.328 316.384 179.328C317.664 179.328 318.676 179.74 319.42 180.564C320.164 181.388 320.536 182.552 320.536 184.056V192H318.616V184.392C318.616 182.168 317.68 181.056 315.808 181.056C315.424 181.056 315.052 181.104 314.692 181.2C314.332 181.296 314.008 181.44 313.72 181.632C313.432 181.824 313.204 182.068 313.036 182.364C312.868 182.66 312.784 183.008 312.784 183.408V192H310.864V174.24Z" fill="#0F62FE"/>
<path id="Shape_3" fill-rule="evenodd" clip-rule="evenodd" d="M330.22 176.412C330.404 176.612 330.704 176.712 331.12 176.712C331.536 176.712 331.836 176.612 332.02 176.412C332.204 176.212 332.296 175.952 332.296 175.632V175.32C332.296 175 332.204 174.74 332.02 174.54C331.836 174.34 331.536 174.24 331.12 174.24C330.704 174.24 330.404 174.34 330.22 174.54C330.036 174.74 329.944 175 329.944 175.32V175.632C329.944 175.952 330.036 176.212 330.22 176.412ZM332.08 192V179.616H330.16V192H332.08Z" fill="#0F62FE"/>
<path id="Path_7" d="M340.768 192.288C339.904 192.288 339.128 192.136 338.44 191.832C337.752 191.528 337.172 191.096 336.7 190.536C336.228 189.976 335.868 189.296 335.62 188.496C335.372 187.696 335.248 186.8 335.248 185.808C335.248 184.816 335.372 183.92 335.62 183.12C335.868 182.32 336.228 181.64 336.7 181.08C337.172 180.52 337.752 180.088 338.44 179.784C339.128 179.48 339.904 179.328 340.768 179.328C342 179.328 342.988 179.596 343.732 180.132C344.476 180.668 345.032 181.368 345.4 182.232L343.792 183.048C343.568 182.408 343.2 181.912 342.688 181.56C342.176 181.208 341.536 181.032 340.768 181.032C340.192 181.032 339.688 181.124 339.256 181.308C338.824 181.492 338.464 181.748 338.176 182.076C337.888 182.404 337.672 182.796 337.528 183.252C337.384 183.708 337.312 184.208 337.312 184.752V186.864C337.312 187.952 337.604 188.844 338.188 189.54C338.772 190.236 339.632 190.584 340.768 190.584C342.32 190.584 343.44 189.864 344.128 188.424L345.52 189.36C345.12 190.256 344.524 190.968 343.732 191.496C342.94 192.024 341.952 192.288 340.768 192.288Z" fill="#0F62FE"/>
<path id="Shape_4" fill-rule="evenodd" clip-rule="evenodd" d="M350.632 191.832C351.32 192.136 352.08 192.288 352.912 192.288C353.744 192.288 354.5 192.136 355.18 191.832C355.86 191.528 356.448 191.092 356.944 190.524C357.44 189.956 357.824 189.276 358.096 188.484C358.368 187.692 358.504 186.8 358.504 185.808C358.504 184.832 358.368 183.944 358.096 183.144C357.824 182.344 357.44 181.66 356.944 181.092C356.448 180.524 355.86 180.088 355.18 179.784C354.5 179.48 353.744 179.328 352.912 179.328C352.08 179.328 351.32 179.48 350.632 179.784C349.944 180.088 349.356 180.524 348.868 181.092C348.38 181.66 348 182.344 347.728 183.144C347.456 183.944 347.32 184.832 347.32 185.808C347.32 186.8 347.456 187.692 347.728 188.484C348 189.276 348.38 189.956 348.868 190.524C349.356 191.092 349.944 191.528 350.632 191.832ZM355.456 189.624C354.8 190.264 353.952 190.584 352.912 190.584C351.872 190.584 351.024 190.264 350.368 189.624C349.712 188.984 349.384 188.008 349.384 186.696V184.92C349.384 183.608 349.712 182.632 350.368 181.992C351.024 181.352 351.872 181.032 352.912 181.032C353.952 181.032 354.8 181.352 355.456 181.992C356.112 182.632 356.44 183.608 356.44 184.92V186.696C356.44 188.008 356.112 188.984 355.456 189.624Z" fill="#0F62FE"/>
<path id="Path_8" d="M361.672 192V179.616H363.592V181.632H363.688C363.992 180.928 364.42 180.368 364.972 179.952C365.524 179.536 366.264 179.328 367.192 179.328C368.472 179.328 369.484 179.74 370.228 180.564C370.972 181.388 371.344 182.552 371.344 184.056V192H369.424V184.392C369.424 182.168 368.488 181.056 366.616 181.056C366.232 181.056 365.86 181.104 365.5 181.2C365.14 181.296 364.816 181.44 364.528 181.632C364.24 181.824 364.012 182.068 363.844 182.364C363.676 182.66 363.592 183.008 363.592 183.408V192H361.672Z" fill="#0F62FE"/>
<g id="icons/arrows/ibm-forward-link copy">
<path id="icon color" fill-rule="evenodd" clip-rule="evenodd" d="M401.75 175.25L400.516 176.484L407.149 183.125H388.625V184.875H407.149L400.516 191.516L401.75 192.75L410.5 184L401.75 175.25V175.25Z" fill="#0F62FE"/>
<mask id="mask0_0_4644" style="mask-type:alpha" maskUnits="userSpaceOnUse" x="388" y="175" width="23" height="18">
<path id="icon color_2" fill-rule="evenodd" clip-rule="evenodd" d="M401.75 175.25L400.516 176.484L407.149 183.125H388.625V184.875H407.149L400.516 191.516L401.75 192.75L410.5 184L401.75 175.25V175.25Z" fill="white"/>
</mask>
<g mask="url(#mask0_0_4644)">
</g>
</g>
</g>
</svg>
