<?xml version="1.0" encoding="UTF-8"?>
<svg width="320px" height="180px" viewBox="0 0 320 180" version="1.1" xmlns="http://www.w3.org/2000/svg" xmlns:xlink="http://www.w3.org/1999/xlink">
    <title>link-list-section</title>
    <defs>
        <polygon id="path-1" points="3.375 1.125 3.110625 1.389375 4.531875 2.8125 0.5625 2.8125 0.5625 3.1875 4.531875 3.1875 3.110625 4.610625 3.375 4.875 5.25 3"></polygon>
        <polygon id="path-3" points="3.375 1.125 3.110625 1.389375 4.531875 2.8125 0.5625 2.8125 0.5625 3.1875 4.531875 3.1875 3.110625 4.610625 3.375 4.875 5.25 3"></polygon>
        <polygon id="path-5" points="3.375 1.125 3.110625 1.389375 4.531875 2.8125 0.5625 2.8125 0.5625 3.1875 4.531875 3.1875 3.110625 4.610625 3.375 4.875 5.25 3"></polygon>
        <polygon id="path-7" points="3.375 1.125 3.110625 1.389375 4.531875 2.8125 0.5625 2.8125 0.5625 3.1875 4.531875 3.1875 3.110625 4.610625 3.375 4.875 5.25 3"></polygon>
        <polygon id="path-9" points="3.375 1.125 3.110625 1.389375 4.531875 2.8125 0.5625 2.8125 0.5625 3.1875 4.531875 3.1875 3.110625 4.610625 3.375 4.875 5.25 3"></polygon>
        <polygon id="path-11" points="3.375 1.125 3.110625 1.389375 4.531875 2.8125 0.5625 2.8125 0.5625 3.1875 4.531875 3.1875 3.110625 4.610625 3.375 4.875 5.25 3"></polygon>
        <polygon id="path-13" points="3.375 1.125 3.110625 1.389375 4.531875 2.8125 0.5625 2.8125 0.5625 3.1875 4.531875 3.1875 3.110625 4.610625 3.375 4.875 5.25 3"></polygon>
        <polygon id="path-15" points="3.375 1.125 3.110625 1.389375 4.531875 2.8125 0.5625 2.8125 0.5625 3.1875 4.531875 3.1875 3.110625 4.610625 3.375 4.875 5.25 3"></polygon>
        <polygon id="path-17" points="3.375 1.125 3.110625 1.389375 4.531875 2.8125 0.5625 2.8125 0.5625 3.1875 4.531875 3.1875 3.110625 4.610625 3.375 4.875 5.25 3"></polygon>
    </defs>
    <g id="link-list-section" stroke="none" stroke-width="1" fill="none" fill-rule="evenodd">
        <g id="Group-4" transform="translate(72.000000, 57.000000)" fill="#FFFFFF" stroke="#C6C6C6">
            <rect id="Rectangle-Copy-14" x="0" y="0" width="176" height="65"></rect>
        </g>
        <rect id="Rectangle-Copy-24" fill="#A8A8A8" x="81" y="66" width="18" height="2"></rect>
        <rect id="Rectangle-Copy-25" fill="#78A9FF" x="117" y="72" width="14" height="2"></rect>
        <rect id="Rectangle-Copy-28" fill="#78A9FF" x="160" y="72" width="14" height="2"></rect>
        <rect id="Rectangle-Copy-26" fill="#78A9FF" x="117" y="83" width="14" height="2"></rect>
        <rect id="Rectangle-Copy-29" fill="#78A9FF" x="160" y="83" width="14" height="2"></rect>
        <line x1="117" y1="67.5" x2="155" y2="67.5" id="Path-4-Copy-10" stroke="#C6C6C6"></line>
        <line x1="160" y1="67.5" x2="198" y2="67.5" id="Path-4-Copy-11" stroke="#C6C6C6"></line>
        <line x1="117" y1="78.5" x2="155" y2="78.5" id="Path-4-Copy-12" stroke="#C6C6C6"></line>
        <line x1="160" y1="78.5" x2="198" y2="78.5" id="Path-4-Copy-15" stroke="#C6C6C6"></line>
        <line x1="117" y1="89.5" x2="155" y2="89.5" id="Path-4-Copy-13" stroke="#C6C6C6"></line>
        <line x1="160" y1="89.5" x2="198" y2="89.5" id="Path-4-Copy-16" stroke="#C6C6C6"></line>
        <rect id="Rectangle-Copy-27" fill="#78A9FF" x="117" y="94" width="14" height="2"></rect>
        <rect id="Rectangle-Copy-30" fill="#78A9FF" x="160" y="94" width="14" height="2"></rect>
        <line x1="117" y1="100.5" x2="155" y2="100.5" id="Path-4-Copy-14" stroke="#C6C6C6"></line>
        <line x1="160" y1="100.5" x2="198" y2="100.5" id="Path-4-Copy-17" stroke="#C6C6C6"></line>
        <g id="icons/arrows/ibm-forward-link-copy-14" transform="translate(147.000000, 70.000000)">
            <mask id="mask-2" fill="white">
                <use xlink:href="#path-1"></use>
            </mask>
            <use id="icon-color" fill="#0F62FE" xlink:href="#path-1"></use>
        </g>
        <g id="icons/arrows/ibm-forward-link-copy-14" transform="translate(190.000000, 70.000000)">
            <mask id="mask-4" fill="white">
                <use xlink:href="#path-3"></use>
            </mask>
            <use id="icon-color" fill="#0F62FE" xlink:href="#path-3"></use>
        </g>
        <g id="icons/arrows/ibm-forward-link-copy-14" transform="translate(147.000000, 81.000000)">
            <mask id="mask-6" fill="white">
                <use xlink:href="#path-5"></use>
            </mask>
            <use id="icon-color" fill="#0F62FE" xlink:href="#path-5"></use>
        </g>
        <g id="icons/arrows/ibm-forward-link-copy-14" transform="translate(190.000000, 81.000000)">
            <mask id="mask-8" fill="white">
                <use xlink:href="#path-7"></use>
            </mask>
            <use id="icon-color" fill="#0F62FE" xlink:href="#path-7"></use>
        </g>
        <g id="icons/arrows/ibm-forward-link-copy-14" transform="translate(147.000000, 92.000000)">
            <mask id="mask-10" fill="white">
                <use xlink:href="#path-9"></use>
            </mask>
            <use id="icon-color" fill="#0F62FE" xlink:href="#path-9"></use>
        </g>
        <g id="icons/arrows/ibm-forward-link-copy-14" transform="translate(190.000000, 92.000000)">
            <mask id="mask-12" fill="white">
                <use xlink:href="#path-11"></use>
            </mask>
            <use id="icon-color" fill="#0F62FE" xlink:href="#path-11"></use>
        </g>
        <rect id="Rectangle-Copy-33" fill="#78A9FF" x="203" y="72" width="14" height="2"></rect>
        <rect id="Rectangle-Copy-32" fill="#78A9FF" x="203" y="83" width="14" height="2"></rect>
        <line x1="203" y1="67.5" x2="241" y2="67.5" id="Path-4-Copy-21" stroke="#C6C6C6"></line>
        <line x1="203" y1="78.5" x2="241" y2="78.5" id="Path-4-Copy-20" stroke="#C6C6C6"></line>
        <line x1="203" y1="89.5" x2="241" y2="89.5" id="Path-4-Copy-19" stroke="#C6C6C6"></line>
        <rect id="Rectangle-Copy-31" fill="#78A9FF" x="203" y="94" width="14" height="2"></rect>
        <line x1="203" y1="100.5" x2="241" y2="100.5" id="Path-4-Copy-18" stroke="#C6C6C6"></line>
        <g id="icons/arrows/ibm-forward-link-copy-14" transform="translate(233.000000, 70.000000)">
            <mask id="mask-14" fill="white">
                <use xlink:href="#path-13"></use>
            </mask>
            <use id="icon-color" fill="#0F62FE" xlink:href="#path-13"></use>
        </g>
        <g id="icons/arrows/ibm-forward-link-copy-14" transform="translate(233.000000, 81.000000)">
            <mask id="mask-16" fill="white">
                <use xlink:href="#path-15"></use>
            </mask>
            <use id="icon-color" fill="#0F62FE" xlink:href="#path-15"></use>
        </g>
        <g id="icons/arrows/ibm-forward-link-copy-14" transform="translate(233.000000, 92.000000)">
            <mask id="mask-18" fill="white">
                <use xlink:href="#path-17"></use>
            </mask>
            <use id="icon-color" fill="#0F62FE" xlink:href="#path-17"></use>
        </g>
    </g>
</svg>