<?xml version="1.0" encoding="UTF-8"?>
<svg width="320px" height="180px" viewBox="0 0 320 180" version="1.1" xmlns="http://www.w3.org/2000/svg" xmlns:xlink="http://www.w3.org/1999/xlink">
    <title>locale-modal</title>
    <defs>
        <rect id="path-1" x="0" y="0" width="176" height="123.053435"></rect>
        <filter x="-4.8%" y="-5.3%" width="109.7%" height="113.8%" filterUnits="objectBoundingBox" id="filter-2">
            <feOffset dx="0" dy="2" in="SourceAlpha" result="shadowOffsetOuter1"></feOffset>
            <feGaussianBlur stdDeviation="2.5" in="shadowOffsetOuter1" result="shadowBlurOuter1"></feGaussianBlur>
            <feColorMatrix values="0 0 0 0 0.862745106   0 0 0 0 0.862745106   0 0 0 0 0.862745106  0 0 0 1 0" type="matrix" in="shadowBlurOuter1"></feColorMatrix>
        </filter>
        <polygon id="path-3" points="5.9860625 5.5 8.25 3.2360625 7.7639375 2.75 5.5 5.0139375 3.2360625 2.75 2.75 3.2360625 5.0139375 5.5 2.75 7.7639375 3.2360625 8.25 5.5 5.9860625 7.7639375 8.25 8.25 7.7639375"></polygon>
        <polygon id="path-5" points="5.0625 1.6875 4.6659375 2.0840625 6.7978125 4.21875 0.84375 4.21875 0.84375 4.78125 6.7978125 4.78125 4.6659375 6.9159375 5.0625 7.3125 7.875 4.5"></polygon>
        <polygon id="path-7" points="5.0625 1.6875 4.6659375 2.0840625 6.7978125 4.21875 0.84375 4.21875 0.84375 4.78125 6.7978125 4.78125 4.6659375 6.9159375 5.0625 7.3125 7.875 4.5"></polygon>
        <polygon id="path-9" points="5.0625 1.6875 4.6659375 2.0840625 6.7978125 4.21875 0.84375 4.21875 0.84375 4.78125 6.7978125 4.78125 4.6659375 6.9159375 5.0625 7.3125 7.875 4.5"></polygon>
        <polygon id="path-11" points="5.0625 1.6875 4.6659375 2.0840625 6.7978125 4.21875 0.84375 4.21875 0.84375 4.78125 6.7978125 4.78125 4.6659375 6.9159375 5.0625 7.3125 7.875 4.5"></polygon>
    </defs>
    <g id="locale-modal" stroke="none" stroke-width="1" fill="none" fill-rule="evenodd">
        <g id="Group-38-Copy-2" transform="translate(72.000000, 28.000000)">
            <g id="Rectangle" fill="black" fill-opacity="1">
                <use filter="url(#filter-2)" xlink:href="#path-1"></use>
            </g>
            <g id="color/gray/10-copy-10" fill="#F3F3F3">
                <rect id="Rectangle" x="0" y="0" width="176" height="124"></rect>
            </g>
        </g>
        <rect id="Rectangle-Copy-28" fill="#FFFFFF" x="77" y="63" width="81" height="40"></rect>
        <rect id="Rectangle-Copy-29" fill="#FFFFFF" x="162" y="63" width="81" height="40"></rect>
        <g id="icon/navigation/close/16-copy" transform="translate(233.000000, 34.000000)">
            <mask id="mask-4" fill="white">
                <use xlink:href="#path-3"></use>
            </mask>
            <use id="icon-color" fill="#000000" xlink:href="#path-3"></use>
        </g>
        <rect id="Rectangle-Copy-30" fill="#FFFFFF" x="77" y="107" width="81" height="40"></rect>
        <rect id="Rectangle-Copy-31" fill="#FFFFFF" x="162" y="107" width="81" height="40"></rect>
        <rect id="Rectangle-Copy-32" fill="#A8A8A8" x="77" y="42" width="81" height="6"></rect>
        <rect id="Rectangle-Copy-33" fill="#C6C6C6" x="77" y="35" width="26" height="4"></rect>
        <rect id="Rectangle-Copy-34" fill="#C6C6C6" x="82" y="68" width="23" height="4"></rect>
        <rect id="Rectangle-Copy-35" fill="#C6C6C6" x="167" y="68" width="23" height="4"></rect>
        <rect id="Rectangle-Copy-36" fill="#C6C6C6" x="167" y="112" width="23" height="4"></rect>
        <rect id="Rectangle-Copy-37" fill="#C6C6C6" x="82" y="112" width="23" height="4"></rect>
        <g id="icons/arrows/ibm-forward-link-copy-15" transform="translate(82.000000, 135.000000)">
            <mask id="mask-6" fill="white">
                <use xlink:href="#path-5"></use>
            </mask>
            <use id="icon-color" fill="#6F6F6F" xlink:href="#path-5"></use>
        </g>
        <g id="icons/arrows/ibm-forward-link-copy-15" transform="translate(82.000000, 91.000000)">
            <mask id="mask-8" fill="white">
                <use xlink:href="#path-7"></use>
            </mask>
            <use id="icon-color" fill="#6F6F6F" xlink:href="#path-7"></use>
        </g>
        <g id="icons/arrows/ibm-forward-link-copy-15" transform="translate(167.000000, 135.000000)">
            <mask id="mask-10" fill="white">
                <use xlink:href="#path-9"></use>
            </mask>
            <use id="icon-color" fill="#6F6F6F" xlink:href="#path-9"></use>
        </g>
        <g id="icons/arrows/ibm-forward-link-copy-15" transform="translate(167.000000, 91.000000)">
            <mask id="mask-12" fill="white">
                <use xlink:href="#path-11"></use>
            </mask>
            <use id="icon-color" fill="#6F6F6F" xlink:href="#path-11"></use>
        </g>
    </g>
</svg>