<?xml version="1.0" encoding="UTF-8"?>
<svg width="320px" height="180px" viewBox="0 0 320 180" version="1.1" xmlns="http://www.w3.org/2000/svg" xmlns:xlink="http://www.w3.org/1999/xlink">
    <title>pictogram-item</title>
    <g id="pictogram-item" stroke="none" stroke-width="1" fill="none" fill-rule="evenodd">
        <g id="pictograms/networking/networking-02-copy" transform="translate(60.000000, 62.000000)" fill="#000000">
            <path d="M2.9399125,3.2547375 L25.6899125,3.2547375 C26.4809125,3.2547375 27.1249125,3.8987375 27.1249125,4.6897375 L27.1249125,16.6247375 L1.5049125,16.6247375 L1.5049125,4.6897375 C1.5049125,3.8987375 2.1489125,3.2547375 2.9399125,3.2547375 M25.6899125,20.9997375 L2.9399125,20.9997375 C2.1489125,20.9997375 1.5049125,20.3557375 1.5049125,19.5647375 L1.5049125,17.2547375 L27.1249125,17.2547375 L27.1249125,19.5647375 C27.1249125,20.3557375 26.4809125,20.9997375 25.6899125,20.9997375 M2.9399125,21.6297375 L13.9999125,21.6297375 L13.9999125,25.3747375 L8.1899125,25.3747375 C8.0157875,25.3747375 7.8749125,25.5156125 7.8749125,25.6897375 C7.8749125,25.8638625 8.0157875,26.0047375 8.1899125,26.0047375 L20.4399125,26.0047375 C20.6140375,26.0047375 20.7549125,25.8638625 20.7549125,25.6897375 C20.7549125,25.5156125 20.6140375,25.3747375 20.4399125,25.3747375 L14.6299125,25.3747375 L14.6299125,21.6297375 L25.6899125,21.6297375 C26.8282875,21.6297375 27.7549125,20.7031125 27.7549125,19.5647375 L27.7549125,4.6897375 C27.7549125,3.5513625 26.8282875,2.6247375 25.6899125,2.6247375 L2.9399125,2.6247375 C1.8015375,2.6247375 0.8749125,3.5513625 0.8749125,4.6897375 L0.8749125,19.5647375 C0.8749125,20.7031125 1.8015375,21.6297375 2.9399125,21.6297375" id="Fill-1"></path>
        </g>
        <rect id="Rectangle-Copy" fill="#A8A8A8" x="117" y="59" width="58" height="7"></rect>
        <rect id="Rectangle-Copy-12" fill="#C6C6C6" x="117" y="75" width="143" height="5"></rect>
        <rect id="Rectangle-Copy-13" fill="#C6C6C6" x="117" y="95" width="143" height="5"></rect>
        <rect id="Rectangle-Copy-14" fill="#78A9FF" x="117" y="117" width="31" height="4"></rect>
        <rect id="Rectangle-Copy-15" fill="#C6C6C6" x="117" y="85" width="116.087591" height="5"></rect>
    </g>
</svg>