<?xml version="1.0" encoding="UTF-8"?>
<svg width="320px" height="180px" viewBox="0 0 320 180" version="1.1" xmlns="http://www.w3.org/2000/svg" xmlns:xlink="http://www.w3.org/1999/xlink">
    <title>tab-extended-media</title>
    <defs>
        <path d="M14.25,10.5 C13.0073593,10.5 12,9.49264069 12,8.25 C12,7.00735931 13.0073593,6 14.25,6 C15.4926407,6 16.5,7.00735931 16.5,8.25 C16.5,8.8467371 16.2629471,9.41903341 15.8409903,9.84099026 C15.4190334,10.2629471 14.8467371,10.5 14.25,10.5 L14.25,10.5 Z M14.25,7.5 C13.8357864,7.5 13.5,7.83578644 13.5,8.25 C13.5,8.66421356 13.8357864,9 14.25,9 C14.6642136,9 15,8.66421356 15,8.25 C15,7.83578644 14.6642136,7.5 14.25,7.5 Z M19.6125,3 L4.3875,3 C3.62120491,3 3,3.62120491 3,4.3875 L3,19.6125 C3,19.9804879 3.14618262,20.3334039 3.40638934,20.5936107 C3.66659607,20.8538174 4.01951212,21 4.3875,21 L19.6125,21 C19.9804879,21 20.3334039,20.8538174 20.5936107,20.5936107 C20.8538174,20.3334039 21,19.9804879 21,19.6125 L21,4.3875 C21,3.62120491 20.3787951,3 19.6125,3 Z M19.5,4.5 L19.5,15.9975 L16.695,13.1925 C16.4136476,12.9108344 16.0318639,12.75257 15.63375,12.75257 C15.2356361,12.75257 14.8538524,12.9108344 14.5725,13.1925 L13.5,14.2875 L9.375,10.1925 C9.09364761,9.91083444 8.71186387,9.75257002 8.31375,9.75257002 C7.91563613,9.75257002 7.53385239,9.91083444 7.2525,10.1925 L4.5,12.945 L4.5,4.5 L19.5,4.5 Z M4.5,19.5 L4.5,15.06 L8.31,11.25 L8.31,11.25 L12.4125,15.3525 C12.6938524,15.6341656 13.0756361,15.79243 13.47375,15.79243 C13.8718639,15.79243 14.2536476,15.6341656 14.535,15.3525 L15.63,14.25 L15.63,14.25 L19.5,18.12 L19.5,19.5 L4.5,19.5 Z" id="path-1"></path>
    </defs>
    <g id="tab-extended-media" stroke="none" stroke-width="1" fill="none" fill-rule="evenodd">
        <g transform="translate(40.000000, 39.000000)" fill-rule="nonzero">
            <g id="Group-3" transform="translate(40.000000, 0.000000)">
                <g id="Group" transform="translate(0.000000, 7.000000)">
                    <g id="Tab-2" fill="#E0E0E0">
                        <rect id="bar" x="0" y="0" width="174" height="3"></rect>
                    </g>
                    <g id="Tab-1-Copy" transform="translate(0.174363, 0.000000)" fill="#0F62FE">
                        <rect id="bar" x="0" y="0" width="34.5093946" height="3"></rect>
                    </g>
                </g>
                <rect id="Rectangle-Copy-7" fill="#A8A8A8" x="5" y="0" width="16.7346939" height="3"></rect>
                <rect id="Rectangle-Copy-8" fill="#C6C6C6" x="41.8163265" y="0" width="16.7346939" height="3"></rect>
                <rect id="Rectangle-Copy-9" fill="#C6C6C6" x="78.6326531" y="0" width="16.7346939" height="3"></rect>
                <rect id="Rectangle-Copy-10" fill="#C6C6C6" x="115.44898" y="0" width="16.7346939" height="3"></rect>
                <rect id="Rectangle-Copy-11" fill="#C6C6C6" x="152.265306" y="0" width="16.7346939" height="3"></rect>
            </g>
            <g id="Group-7" transform="translate(174.000000, 49.000000)" fill="#C6C6C6">
                <rect id="Rectangle-Copy-26" x="0" y="0" width="66" height="4"></rect>
                <rect id="Rectangle-Copy-27" x="0" y="8" width="58" height="4"></rect>
                <rect id="Rectangle-Copy-28" x="0" y="16" width="66" height="4"></rect>
            </g>
            <rect id="Rectangle-Copy-29" fill="#78A9FF" x="174" y="80" width="30" height="4"></rect>
            <rect id="Rectangle-Copy-32" fill="#A8A8A8" x="174" y="36" width="50" height="7"></rect>
            <rect id="Rectangle-Copy-33" fill="#A8A8A8" x="174" y="26" width="28" height="7"></rect>
            <g id="Group-2" transform="translate(40.000000, 26.000000)" fill="#BEBEBE">
                <rect id="Rectangle-Copy-31" x="0" y="0" width="126" height="70"></rect>
            </g>
            <rect id="Rectangle-Copy-12" fill="#A8A8A8" x="0" y="0" width="16.7346939" height="3"></rect>
        </g>
        <g id="icon/formatting/image/16-copy-2" transform="translate(131.000000, 88.000000)">
            <mask id="mask-2" fill="white">
                <use xlink:href="#path-1"></use>
            </mask>
            <use id="icon-color" fill="#8E8E93" xlink:href="#path-1"></use>
        </g>
    </g>
</svg>