<?xml version="1.0" encoding="UTF-8"?>
<svg width="320px" height="180px" viewBox="0 0 320 180" version="1.1" xmlns="http://www.w3.org/2000/svg" xmlns:xlink="http://www.w3.org/1999/xlink">
    <title>table-of-contents</title>
    <g id="table-of-contents" stroke="none" stroke-width="1" fill="none" fill-rule="evenodd">
        <rect id="Rectangle-Copy-38" fill="#1060FE" x="60" y="42" width="2" height="7"></rect>
        <rect id="Rectangle-Copy-39" fill="#F3F3F3" x="60" y="49" width="2" height="21"></rect>
        <rect id="Rectangle-Copy-40" fill="#A8A8A8" x="68" y="44" width="36" height="3"></rect>
        <rect id="Rectangle-Copy-41" fill="#A8A8A8" x="125" y="44" width="66" height="6"></rect>
        <rect id="Rectangle-Copy-42" fill="#C6C6C6" x="68" y="51" width="29" height="3"></rect>
        <rect id="Rectangle-Copy-43" fill="#C6C6C6" x="68" y="58" width="36" height="3"></rect>
        <rect id="Rectangle-Copy-44" fill="#C6C6C6" x="68" y="65" width="29" height="3"></rect>
        <rect id="Rectangle-Copy-60" fill="#C6C6C6" x="125" y="63" width="121.304348" height="4"></rect>
        <rect id="Rectangle-Copy-61" fill="#C6C6C6" x="125" y="91" width="121.304348" height="4"></rect>
        <rect id="Rectangle-Copy-62" fill="#C6C6C6" x="125" y="119" width="121.304348" height="4"></rect>
        <rect id="Rectangle-Copy-63" fill="#C6C6C6" x="125" y="70" width="135" height="4"></rect>
        <rect id="Rectangle-Copy-64" fill="#C6C6C6" x="125" y="98" width="135" height="4"></rect>
        <rect id="Rectangle-Copy-65" fill="#C6C6C6" x="125" y="126" width="135" height="4"></rect>
        <rect id="Rectangle-Copy-66" fill="#C6C6C6" x="125" y="56" width="135" height="4"></rect>
        <rect id="Rectangle-Copy-67" fill="#C6C6C6" x="125" y="84" width="135" height="4"></rect>
        <rect id="Rectangle-Copy-68" fill="#C6C6C6" x="125" y="112" width="135" height="4"></rect>
        <rect id="Rectangle-Copy-69" fill="#C6C6C6" x="125" y="77" width="121.304348" height="4"></rect>
        <rect id="Rectangle-Copy-70" fill="#C6C6C6" x="125" y="105" width="121.304348" height="4"></rect>
        <rect id="Rectangle-Copy-71" fill="#C6C6C6" x="125" y="133" width="121.304348" height="4"></rect>
    </g>
</svg>