<svg width="58" height="24" viewBox="0 0 58 24" fill="none" xmlns="http://www.w3.org/2000/svg">
<g id="logo">
<path id="logo color" fill-rule="evenodd" clip-rule="evenodd" d="M32.1335 0.846069H41.1894L41.6962 2.27207H32.1335V0.846069ZM24.6845 0.853948C26.1997 0.853948 27.5854 1.39128 28.6559 2.27961H12.8537V0.853948H24.6845ZM30.6052 5.27381C30.4652 4.76894 30.2588 4.29079 29.9965 3.84781H12.8537V5.27381H30.6052ZM16.0668 11.2619V9.83626H29.9956C29.6789 10.3692 29.2802 10.849 28.817 11.2619H16.0668ZM28.7641 12.8301H16.067V14.2561H29.9427C29.6264 13.7232 29.2277 13.243 28.7641 12.8301ZM20.887 17.2502H16.0669V15.8242H20.887V17.2502ZM12.8536 20.2442V18.8185H30.6051C30.4652 19.3234 30.2587 19.8015 29.9964 20.2442H12.8536ZM16.0669 8.26783H20.887V6.84183H16.0669V8.26783ZM30.6404 8.268H25.4149V6.842H30.8191C30.8191 7.33368 30.7551 7.81048 30.6404 8.268ZM25.4149 15.8243V17.2503H30.8191C30.8191 16.7583 30.7551 16.2818 30.6404 15.8243H25.4149ZM32.1337 23.2383H40.1698V21.812H32.1337V23.2383ZM40.1698 20.2433H32.1337V18.8169H40.1698V20.2433ZM35.3482 17.2479H40.1698V15.8219H35.3482V17.2479ZM40.1698 14.2532H35.3482V12.8268H40.1698V14.2532ZM49.8135 23.2383H57.8496V21.812H49.8135V23.2383ZM57.8496 20.2433H49.8135V18.8169H57.8496V20.2433ZM49.8135 17.2479H54.6351V15.8219H49.8135V17.2479ZM54.6351 14.2532H49.8135V12.8268H54.6351V14.2532ZM49.8135 11.2579H54.6351V9.83156H49.8135H45.5972L45.09 11.2579H49.322L49.8135 9.89953V11.2579ZM40.1698 9.83163H44.3861L44.8933 11.258H40.661L40.1698 9.8996V11.258H35.3482V9.83163H40.1698ZM54.6351 6.83646H46.6614L46.1549 8.26279H54.6351V6.83646ZM48.2837 2.27275L48.7905 0.846407H57.8495V2.27275H48.2837ZM44.9886 23.2383L45.5048 21.812H44.4783L44.9886 23.2383ZM46.0721 20.2431H43.9111L43.3953 18.8168H46.5883L46.0721 20.2431ZM42.8278 17.248H47.1554L47.6712 15.8219H42.312L42.8278 17.248ZM48.2387 14.2531H41.7446L41.2288 12.8267H48.7545L48.2387 14.2531ZM35.3482 8.26273H43.8284L43.3216 6.83639H35.3482V8.26273ZM57.8498 5.26752H47.2191L47.7262 3.84118H57.8498V5.26752ZM42.2571 3.84128H32.1335V5.26762H42.764L42.2571 3.84128ZM12.8536 23.2384V21.8124H28.6558C27.5853 22.701 26.1996 23.2384 24.6844 23.2384H12.8536ZM0 23.2303H11.2467V21.8043H0V23.2303ZM11.2467 20.2362H0V18.8102H11.2467V20.2362ZM3.21309 17.2422H8.03326V15.8162H3.21309V17.2422ZM8.03326 14.2482H3.21309V12.8222H8.03326V14.2482ZM3.21309 11.2538H8.03326V9.82815H3.21309V11.2538ZM8.03326 8.26012H3.21309V6.83412H8.03326V8.26012ZM0 5.26576H11.2467V3.83976H0V5.26576ZM11.2467 2.27173H0V0.846069H11.2467V2.27173Z" fill="#8C8C8C"/>
<mask id="mask0_1455_52615" style="mask-type:luminance" maskUnits="userSpaceOnUse" x="0" y="0" width="58" height="24">
<path id="logo color_2" fill-rule="evenodd" clip-rule="evenodd" d="M32.1335 0.846069H41.1894L41.6962 2.27207H32.1335V0.846069ZM24.6845 0.853948C26.1997 0.853948 27.5854 1.39128 28.6559 2.27961H12.8537V0.853948H24.6845ZM30.6052 5.27381C30.4652 4.76894 30.2588 4.29079 29.9965 3.84781H12.8537V5.27381H30.6052ZM16.0668 11.2619V9.83626H29.9956C29.6789 10.3692 29.2802 10.849 28.817 11.2619H16.0668ZM28.7641 12.8301H16.067V14.2561H29.9427C29.6264 13.7232 29.2277 13.243 28.7641 12.8301ZM20.887 17.2502H16.0669V15.8242H20.887V17.2502ZM12.8536 20.2442V18.8185H30.6051C30.4652 19.3234 30.2587 19.8015 29.9964 20.2442H12.8536ZM16.0669 8.26783H20.887V6.84183H16.0669V8.26783ZM30.6404 8.268H25.4149V6.842H30.8191C30.8191 7.33368 30.7551 7.81048 30.6404 8.268ZM25.4149 15.8243V17.2503H30.8191C30.8191 16.7583 30.7551 16.2818 30.6404 15.8243H25.4149ZM32.1337 23.2383H40.1698V21.812H32.1337V23.2383ZM40.1698 20.2433H32.1337V18.8169H40.1698V20.2433ZM35.3482 17.2479H40.1698V15.8219H35.3482V17.2479ZM40.1698 14.2532H35.3482V12.8268H40.1698V14.2532ZM49.8135 23.2383H57.8496V21.812H49.8135V23.2383ZM57.8496 20.2433H49.8135V18.8169H57.8496V20.2433ZM49.8135 17.2479H54.6351V15.8219H49.8135V17.2479ZM54.6351 14.2532H49.8135V12.8268H54.6351V14.2532ZM49.8135 11.2579H54.6351V9.83156H49.8135H45.5972L45.09 11.2579H49.322L49.8135 9.89953V11.2579ZM40.1698 9.83163H44.3861L44.8933 11.258H40.661L40.1698 9.8996V11.258H35.3482V9.83163H40.1698ZM54.6351 6.83646H46.6614L46.1549 8.26279H54.6351V6.83646ZM48.2837 2.27275L48.7905 0.846407H57.8495V2.27275H48.2837ZM44.9886 23.2383L45.5048 21.812H44.4783L44.9886 23.2383ZM46.0721 20.2431H43.9111L43.3953 18.8168H46.5883L46.0721 20.2431ZM42.8278 17.248H47.1554L47.6712 15.8219H42.312L42.8278 17.248ZM48.2387 14.2531H41.7446L41.2288 12.8267H48.7545L48.2387 14.2531ZM35.3482 8.26273H43.8284L43.3216 6.83639H35.3482V8.26273ZM57.8498 5.26752H47.2191L47.7262 3.84118H57.8498V5.26752ZM42.2571 3.84128H32.1335V5.26762H42.764L42.2571 3.84128ZM12.8536 23.2384V21.8124H28.6558C27.5853 22.701 26.1996 23.2384 24.6844 23.2384H12.8536ZM0 23.2303H11.2467V21.8043H0V23.2303ZM11.2467 20.2362H0V18.8102H11.2467V20.2362ZM3.21309 17.2422H8.03326V15.8162H3.21309V17.2422ZM8.03326 14.2482H3.21309V12.8222H8.03326V14.2482ZM3.21309 11.2538H8.03326V9.82815H3.21309V11.2538ZM8.03326 8.26012H3.21309V6.83412H8.03326V8.26012ZM0 5.26576H11.2467V3.83976H0V5.26576ZM11.2467 2.27173H0V0.846069H11.2467V2.27173Z" fill="white"/>
</mask>
<g mask="url(#mask0_1455_52615)">
<g id="color/gray/gray-10">
<rect id="gray-10" y="0.5" width="58" height="23" fill="#F4F4F4"/>
</g>
</g>
</g>
</svg>
